<?xml version="1.0" encoding="UTF-8" standalone="no"?>
<!-- Created with Inkscape (http://www.inkscape.org/) -->

<svg
   version="1.1"
   id="svg1"
   width="1024"
   height="1024"
   viewBox="0 0 1024 1024"
   xml:space="preserve"
   xmlns="http://www.w3.org/2000/svg"
   xmlns:svg="http://www.w3.org/2000/svg"><defs
     id="defs1" /><g
     id="g1"><rect
       style="display:none;fill:#212122;fill-opacity:1;stroke:#2359de;stroke-width:1.10748;stroke-linecap:round;stroke-linejoin:round;stroke-opacity:0.694118;paint-order:fill markers stroke"
       id="rect4"
       width="1022.8925"
       height="1022.8925"
       x="0.55374002"
       y="0.55374002" /><rect
       style="fill:#212122;fill-opacity:1;stroke:#2359de;stroke-width:1.10748;stroke-linecap:round;stroke-linejoin:round;stroke-opacity:0.694118;paint-order:fill markers stroke"
       id="rect5"
       width="1022.8925"
       height="1022.8925"
       x="0.55374002"
       y="0.55374002"
       ry="289.40768" /><circle
       style="display:none;fill:#212122;fill-opacity:1;stroke:#2359de;stroke-width:3.35603;stroke-linecap:round;stroke-linejoin:round;stroke-opacity:0.694118;paint-order:fill markers stroke"
       id="path4"
       cx="512"
       cy="512"
       r="510.32199" /><g
       id="g4"
       transform="translate(3.0932326,-0.02527085)"><path
         style="fill:#c3e0b9"
         d="m 492,859.735 c -0.275,-0.2837 -4.775,-0.8253 -10,-1.20357 -9.62385,-0.69674 -11.53598,-0.87889 -20.5,-1.95287 -4.83609,-0.57941 -13.8936,-2.14153 -18,-3.1044 -1.1,-0.25792 -3.74969,-0.71258 -5.88821,-1.01034 -2.13851,-0.29776 -4.73531,-0.99474 -5.77067,-1.54885 -1.03535,-0.5541 -2.29206,-0.75431 -2.79269,-0.4449 -0.50063,0.3094 -1.21185,0.0745 -1.58048,-0.52193 -0.36864,-0.59647 -1.28532,-0.84846 -2.03708,-0.55999 -0.75175,0.28848 -1.64016,0.0822 -1.97425,-0.45834 -0.33409,-0.54057 -1.136,-0.88601 -1.78203,-0.76766 -2.02987,0.37189 -19.84534,-4.70105 -27.67459,-7.88031 -0.825,-0.33501 -1.8375,-0.70422 -2.25,-0.82047 -0.4125,-0.11626 -0.975,-0.32387 -1.25,-0.46137 -0.275,-0.1375 -0.8375,-0.34396 -1.25,-0.45879 -0.4125,-0.11484 -2.01679,-0.73359 -3.5651,-1.375 C 384.1366,836.52479 382.40603,836 381.83919,836 c -0.56683,0 -2.22504,-0.62018 -3.6849,-1.37818 -1.45986,-0.758 -3.77929,-1.81386 -5.15429,-2.34636 -3.24845,-1.25803 -34.34621,-16.59848 -35,-17.26541 -0.275,-0.28053 -2.2214,-1.38667 -4.32533,-2.45809 -2.10393,-1.07142 -4.76029,-2.75892 -5.90301,-3.75 C 326.62894,807.81088 325.08783,807 324.34699,807 323.60615,807 323,806.63967 323,806.19927 c 0,-0.44041 -1.97503,-1.76028 -4.38896,-2.93306 -2.41392,-1.17277 -5.96083,-3.51244 -7.88201,-5.19926 C 308.80785,796.38013 306.94576,795 306.59107,795 305.78456,795 290.2485,783.30346 287.38521,780.54061 286.22208,779.41827 283.10115,776.7 280.4498,774.5 274.35536,769.44303 271.0911,766.26355 268.24805,762.61514 267.01162,761.02847 266,759.93323 266,760.18129 c 0,0.87528 -13.55884,-12.7638 -18,-18.10653 -2.475,-2.97743 -5.2875,-6.23729 -6.25,-7.24414 -0.9625,-1.00684 -1.75,-2.13037 -1.75,-2.49673 0,-0.36636 -0.65411,-1.37886 -1.45358,-2.25 -4.3757,-4.76796 -5.256,-5.88468 -5.84143,-7.41028 C 232.35177,721.75312 231.59865,721 231.03138,721 230.46412,721 230,720.31088 230,719.46862 c 0,-0.84227 -0.675,-1.79041 -1.5,-2.10699 -0.825,-0.31659 -1.5,-1.16496 -1.5,-1.88529 0,-0.72032 -0.3637,-1.45967 -0.80821,-1.64301 -0.93882,-0.38719 -6.11476,-8.06931 -8.14134,-12.08333 -0.76363,-1.5125 -1.78893,-2.75 -2.27845,-2.75 -0.48952,0 -0.65404,-0.38185 -0.3656,-0.84856 0.28844,-0.4667 -0.36,-1.79789 -1.44098,-2.95818 C 212.88444,694.03296 212,692.64695 212,692.11324 c 0,-0.53371 -0.5625,-1.58403 -1.25,-2.33404 -0.6875,-0.75002 -1.79391,-2.24466 -2.4587,-3.32143 -1.40664,-2.27839 -15.67916,-30.71563 -15.7885,-31.45777 -0.0405,-0.275 -0.69627,-1.625 -1.45722,-3 -0.76094,-1.375 -1.3684,-2.725 -1.34991,-3 0.0185,-0.275 -0.31885,-1.4 -0.74966,-2.5 -0.77095,-1.96846 -2.10778,-5.52095 -2.44601,-6.5 -0.62073,-1.79679 -1.81512,-4.79449 -2.58984,-6.5 -1.79756,-3.95727 -4.79034,-13.5 -4.23385,-13.5 0.31272,0 0.12146,-0.5625 -0.42502,-1.25 -0.54648,-0.6875 -1.55824,-3.725 -2.24835,-6.75 -0.69011,-3.025 -1.4921,-6.175 -1.78219,-7 -0.29009,-0.825 -0.6149,-1.95 -0.72178,-2.5 -0.10689,-0.55 -0.31913,-1.3375 -0.47166,-1.75 -0.15252,-0.4125 -0.38981,-1.2 -0.52731,-1.75 -0.1375,-0.55 -0.34375,-1.1125 -0.45833,-1.25 -0.11459,-0.1375 -0.3555,-1.15 -0.53536,-2.25 -0.17986,-1.1 -0.6243,-3.125 -0.98764,-4.5 -0.36334,-1.375 -0.79625,-3.4 -0.96202,-4.5 -0.16577,-1.1 -0.42738,-2.225 -0.58134,-2.5 -0.15397,-0.275 -0.36319,-0.95 -0.46494,-1.5 -0.10175,-0.55 -0.49537,-2.575 -0.8747,-4.5 -0.37934,-1.925 -0.83598,-4.89777 -1.01476,-6.60615 -0.17879,-1.70838 -0.56996,-3.50838 -0.86928,-4 -0.48202,-0.7917 -1.36881,-7.88641 -2.2991,-18.39385 -0.17044,-1.925 -0.70853,-7.325 -1.19577,-12 -0.84124,-8.07163 -0.79101,-47.97743 0.0711,-56.5 0.22255,-2.2 0.71527,-7.15 1.09494,-11 0.97772,-9.91445 3.44181,-25.28834 4.80832,-30 0.63807,-2.2 1.2678,-4.675 1.3994,-5.5 0.2224,-1.39424 1.24253,-6.20059 1.80407,-8.5 0.13432,-0.55 0.5925,-2.69247 1.01817,-4.76105 0.42567,-2.06857 1.17293,-4.00763 1.66058,-4.30901 0.48765,-0.30139 0.88664,-1.59146 0.88664,-2.86683 0,-1.27538 0.68104,-3.94882 1.51342,-5.94099 0.8324,-1.99216 1.2273,-3.62212 0.87758,-3.62212 -0.34973,0 -0.0757,-0.675 0.60902,-1.5 0.68469,-0.825 0.90969,-1.5 0.5,-1.5 -0.40969,0 -0.28379,-0.5625 0.27978,-1.25 0.56357,-0.6875 1.55948,-3.275 2.21312,-5.75 0.65365,-2.475 2.27265,-6.67447 3.59778,-9.33216 1.32512,-2.65769 2.40932,-5.43282 2.40932,-6.16695 0,-0.73413 1.54676,-4.2504 3.43725,-7.81392 1.89049,-3.56352 3.16549,-6.7509 2.83333,-7.08305 C 193.93843,363.27176 194.26667,363 195,363 c 0.73333,0 1.05419,-0.27915 0.71301,-0.62032 -0.34118,-0.34118 0.73118,-3.15368 2.38302,-6.25 1.65185,-3.09633 4.78442,-8.9667 6.96129,-13.04529 2.17686,-4.07858 5.0795,-8.88606 6.45031,-10.68328 C 212.87843,330.6039 214,328.65342 214,328.06672 214,327.48002 214.45,327 215,327 c 0.55,0 1,-0.675 1,-1.5 0,-0.825 0.45,-1.5 1,-1.5 0.55,0 1,-0.675 1,-1.5 0,-0.825 0.37925,-1.5 0.84278,-1.5 0.46353,0 1.82933,-1.9125 3.03511,-4.25 1.20578,-2.3375 3.41403,-5.68715 4.90722,-7.44366 1.49319,-1.75651 3.5037,-4.23151 4.46779,-5.5 4.72789,-6.22061 6.46434,-8.26675 8.9971,-10.60171 1.5125,-1.39437 2.75,-2.87623 2.75,-3.293 0,-0.41678 1.2375,-2.0423 2.75,-3.61227 1.5125,-1.56997 5.66291,-6.10458 9.22312,-10.07692 C 258.53334,272.2501 262.0474,269 262.78214,269 c 0.73474,0 1.11813,-0.35235 0.85197,-0.78301 -0.26616,-0.43066 3.58509,-4.59316 8.55833,-9.25 4.97325,-4.65684 10.53424,-9.92949 12.35776,-11.71699 1.82352,-1.7875 3.7919,-3.25 4.37417,-3.25 0.58228,0 1.62074,-0.9 2.3077,-2 0.68696,-1.1 2.04078,-2 3.00848,-2 0.9677,0 1.75945,-0.675 1.75945,-1.5 0,-0.825 0.5109,-1.5 1.13533,-1.5 0.62443,0 2.15704,-1.0125 3.40581,-2.25 2.59423,-2.57083 3.52066,-3.28945 8.70203,-6.75 2.05874,-1.375 3.74624,-2.8375 3.75,-3.25 0.004,-0.4125 0.47565,-0.75 1.04864,-0.75 0.573,0 2.00785,-0.9 3.18856,-2 1.18072,-1.1 2.7369,-2 3.45819,-2 0.72129,0 1.31144,-0.45 1.31144,-1 0,-0.55 0.675,-1 1.5,-1 0.825,0 1.5,-0.45 1.5,-1 0,-0.55 0.675,-1 1.5,-1 0.825,0 1.5,-0.34329 1.5,-0.76287 0,-0.75734 0.95983,-1.37268 6.57743,-4.21678 1.60741,-0.8138 3.14757,-1.76582 3.42257,-2.11559 0.275,-0.34978 3.07851,-1.84986 6.23003,-3.33353 3.15151,-1.48366 5.9951,-3.12649 6.31909,-3.65071 0.32399,-0.52423 1.00798,-0.69425 1.51998,-0.37781 0.51199,0.31643 0.9309,0.18151 0.9309,-0.29982 0,-0.88015 14.58992,-7.97366 20,-9.72385 0.275,-0.089 1.85,-0.75539 3.5,-1.48093 8.12821,-3.57417 9.87651,-4.27626 11.37682,-4.5687 0.89275,-0.17401 1.73568,-0.40707 1.87318,-0.5179 0.1375,-0.11083 0.7,-0.31401 1.25,-0.45151 0.55,-0.1375 1.1125,-0.33969 1.25,-0.44931 0.1375,-0.10962 1.33968,-0.39983 2.67152,-0.6449 1.33183,-0.24508 2.90683,-0.82799 3.5,-1.29537 1.0969,-0.86429 7.31627,-3.03826 10.38813,-3.63115 0.92969,-0.17943 1.69035,-0.39768 1.69035,-0.48499 0,-0.0873 1.33878,-0.3757 2.97508,-0.64086 1.63629,-0.26517 3.47769,-0.89926 4.09201,-1.4091 0.61431,-0.50983 1.40215,-0.64175 1.75075,-0.29314 0.34861,0.3486 1.2072,0.15996 1.90799,-0.41919 0.7008,-0.57916 2.84917,-1.34441 4.77417,-1.70055 5.94324,-1.09956 6.42648,-1.19968 9,-1.86465 1.375,-0.35529 3.625,-0.84568 5,-1.08977 1.375,-0.24409 4.975,-0.94024 8,-1.54699 3.025,-0.60675 7.75,-1.33058 10.5,-1.60852 2.75,-0.27793 6.125,-0.68798 7.5,-0.91122 9.41057,-1.52783 19.87151,-1.99095 44,-1.94796 26.05172,0.0464 35.01961,0.73555 53,4.07279 1.375,0.25521 3.85,0.64527 5.5,0.86682 1.65,0.22154 4.125,0.67348 5.5,1.0043 1.375,0.33083 3.4,0.76943 4.5,0.97465 4.74834,0.88591 8.25727,1.68557 12,2.73473 2.2,0.6167 4.45,1.24682 5,1.40028 0.55,0.15345 2.35,0.53824 4,0.85508 2.83615,0.54462 13.65098,3.88366 18,5.55745 6.80658,2.61962 9.0564,3.45948 9.5,3.54637 0.275,0.0539 1.175,0.34697 2,0.65135 0.825,0.30438 3.75,1.35071 6.5,2.32516 2.75,0.97446 6.10521,2.48656 7.45602,3.36022 1.35081,0.87366 2.70081,1.46569 3,1.31563 0.60729,-0.30459 2.04784,0.34294 17.04398,7.66133 10.85629,5.29807 14.11783,7.10351 15.03505,8.32272 0.29427,0.39117 2.09427,1.41038 4,2.26492 4.13648,1.85482 6.66143,3.41422 9.34893,5.77387 1.09623,0.9625 2.42831,1.75 2.96019,1.75 0.53188,0 2.442,1.125 4.24472,2.5 1.80272,1.375 3.53106,2.5 3.84077,2.5 0.59878,0 14.72417,9.89043 15.57034,10.90217 0.275,0.3288 2.075,1.6941 4,3.034 3.34625,2.32914 4.71736,3.47347 11.5,9.59788 1.65,1.48988 4.0125,3.38096 5.25,4.20242 1.2375,0.82145 2.25,2.1168 2.25,2.87854 0,0.76174 0.34971,1.38499 0.77714,1.38499 1.28233,0 7.7446,6.29769 7.44808,7.25839 -0.15112,0.48965 0.11766,0.64773 0.59731,0.3513 0.47964,-0.29644 2.29131,1.13261 4.02594,3.17567 3.62291,4.26708 3.37471,4.00649 8.65153,9.08357 2.2,2.11673 5.8,6.01867 8,8.67099 2.2,2.65232 5.125,6.09682 6.5,7.65445 1.375,1.55763 3.4,4.00232 4.5,5.43265 1.1,1.43032 2.7875,3.32439 3.75,4.20903 0.9625,0.88464 1.75,1.97742 1.75,2.4284 0,0.45098 0.45884,1.36347 1.01965,2.02776 4.43236,5.25022 6.10255,7.51951 7.65219,10.39702 0.98063,1.82092 2.13064,3.31077 2.55556,3.31077 0.42493,0 0.7726,0.675 0.7726,1.5 0,0.825 0.45,1.5 1,1.5 0.55,0 1,0.675 1,1.5 0,0.825 0.34767,1.5 0.7726,1.5 0.42492,0 1.65812,1.6875 2.74042,3.75 1.08231,2.0625 2.22269,3.975 2.53418,4.25 0.31149,0.275 1.15789,1.9625 1.88089,3.75 0.723,1.7875 1.78496,3.25 2.3599,3.25 0.57494,0 0.75469,0.29065 0.39945,0.64589 -0.35523,0.35524 0.67943,2.44803 2.29925,4.65065 1.61982,2.20262 2.70891,4.38697 2.4202,4.85411 -0.28871,0.46714 -0.1353,0.84935 0.3409,0.84935 0.47621,0 2.34924,3.2625 4.16231,7.25 1.81306,3.9875 4.15285,9.05 5.19952,11.25 1.04668,2.2 1.92216,4.45 1.94551,5 0.0234,0.55 0.70588,2.0125 1.51672,3.25 0.81084,1.2375 1.22305,2.25 0.91602,2.25 -0.30703,0 0.004,1.0125 0.69151,2.25 0.68736,1.2375 1.30637,2.475 1.37558,2.75 0.0692,0.275 0.8421,2.09992 1.71753,4.05537 0.87544,1.95546 1.90931,4.88046 2.2975,6.5 0.38818,1.61955 1.14884,3.50713 1.69034,4.19463 0.54151,0.6875 0.69842,1.25 0.34869,1.25 -0.34972,0 -0.0248,1.4625 0.72208,3.25 0.74686,1.7875 1.4279,3.5875 1.51342,4 0.0855,0.4125 0.21173,0.975 0.28048,1.25 0.0688,0.275 0.2375,0.95 0.375,1.5 0.1375,0.55 0.34068,1.1125 0.45151,1.25 0.11083,0.1375 0.36578,0.925 0.56654,1.75 0.20077,0.825 0.64264,2.625 0.98195,4 0.33931,1.375 0.78118,3.175 0.98195,4 0.20076,0.825 0.43389,1.5 0.51805,1.5 0.16094,0 0.79868,2.63285 1.45334,6 0.21386,1.1 0.64935,3.0125 0.96775,4.25 1.89259,7.35582 3.28784,15.06585 5.02177,27.75 0.22556,1.65 0.67174,4.8 0.99152,7 2.76316,19.01004 2.73921,76.96998 -0.0349,84.5 -0.30393,0.825 -0.74823,3.3 -0.98732,5.5 -0.23908,2.2 -0.66965,5.35 -0.9568,7 -0.28716,1.65 -0.67909,4.125 -0.87095,5.5 -0.85731,6.14383 -1.77043,9.49695 -2.7513,10.10316 -0.73253,0.45273 -0.71541,0.7694 0.0555,1.02637 0.81614,0.27204 0.82045,1.30929 0.016,3.87105 -0.60435,1.92468 -1.21765,4.17442 -1.36288,4.99942 -0.14523,0.825 -0.53853,2.175 -0.874,3 -0.33546,0.825 -0.87159,2.85 -1.19139,4.5 -0.67213,3.46785 -1.22602,5.78735 -1.55216,6.5 -0.12586,0.275 -0.33338,0.95 -0.46116,1.5 -0.12779,0.55 -0.3405,1.3375 -0.47269,1.75 -0.13219,0.4125 -0.35285,1.2 -0.49035,1.75 -0.1375,0.55 -0.33969,1.1125 -0.44931,1.25 -0.10962,0.1375 -0.39611,1.375 -0.63664,2.75 -0.24053,1.375 -0.72469,3.175 -1.07592,4 -0.35123,0.825 -0.80494,2.36468 -1.00826,3.42152 -0.20332,1.05683 -0.80681,2.44823 -1.34109,3.092 -0.53429,0.64378 -0.67533,1.46659 -0.31344,1.82849 0.3619,0.36189 0.16875,0.65799 -0.42922,0.65799 -0.59796,0 -1.37417,1.4625 -1.7249,3.25 -0.35074,1.7875 -1.02069,4.15 -1.48878,5.25 -1.12317,2.6394 -1.80357,4.88151 -1.66905,5.5 0.0598,0.275 -0.93419,2.1875 -2.20888,4.25 -1.2747,2.0625 -2.04437,3.75 -1.71039,3.75 0.33398,0 -0.17295,1.4625 -1.12652,3.25 -0.95357,1.7875 -1.76549,3.475 -1.80426,3.75 -0.17642,1.25126 -10.92566,22.55807 -11.61372,23.02035 -0.42597,0.2862 -1.26334,1.6362 -1.8608,3 -0.59747,1.36381 -2.17747,4.27965 -3.51112,6.47965 -1.33364,2.2 -2.84969,4.9 -3.36899,6 -0.5193,1.1 -2.34245,3.74938 -4.05144,5.8875 -1.709,2.13813 -3.10727,4.45249 -3.10727,5.14302 0,0.69052 -0.675,1.51452 -1.5,1.83111 -0.825,0.31658 -1.5,1.26472 -1.5,2.10699 0,0.84226 -0.45,1.53138 -1,1.53138 -0.55,0 -1,0.48214 -1,1.07143 0,0.58928 -0.5625,1.65915 -1.25,2.37747 -0.6875,0.71832 -1.925,2.33455 -2.75,3.59161 -2.13479,3.2528 -9.96898,13.07072 -12.42541,15.5717 -1.14103,1.16172 -4.09959,4.48573 -6.57459,7.38669 -9.42538,11.04754 -37.04027,37.56154 -41.04001,39.40391 -1.078,0.49655 -1.95999,1.20827 -1.95999,1.58159 0,0.37332 -2.25,2.13672 -5,3.91866 -2.75,1.78194 -5,3.65773 -5,4.16841 0,0.51069 -0.5671,0.92853 -1.26022,0.92853 -0.69312,0 -2.47348,1.125 -3.95635,2.5 -1.48288,1.375 -3.05328,2.50777 -3.48979,2.51728 -0.4365,0.01 -1.85337,1.1345 -3.1486,2.5 -1.29523,1.36549 -2.98273,2.48272 -3.75,2.48272 -0.76727,0 -1.39504,0.39873 -1.39504,0.88606 0,0.48733 -1.4625,1.63238 -3.25,2.54456 -1.7875,0.91218 -4.6,2.5335 -6.25,3.60293 -1.65,1.06943 -3.675,2.24278 -4.5,2.60744 -0.825,0.36465 -2.33474,1.38211 -3.35499,2.26101 -1.02024,0.8789 -1.92024,1.43913 -2,1.24496 -0.2872,-0.69921 -7.64501,3.24413 -7.64501,4.09727 0,0.48059 -0.45,0.59569 -1,0.25577 -0.55,-0.33992 -1,-0.11492 -1,0.5 0,0.61492 -0.45,0.83992 -1,0.5 -0.55,-0.33992 -1,-0.11492 -1,0.5 0,0.61492 -0.45,0.83992 -1,0.5 -0.55,-0.33992 -1,-0.1718 -1,0.3736 0,0.99447 -3.84326,2.69614 -5.25,2.32453 -0.4125,-0.10897 -0.75,0.32687 -0.75,0.96854 0,0.64166 -0.28188,0.88478 -0.62641,0.54026 -0.34452,-0.34453 -2.98764,0.68735 -5.87359,2.29307 -2.88595,1.60572 -5.52907,2.6376 -5.87359,2.29307 -0.34453,-0.34452 -0.62641,-0.1014 -0.62641,0.54026 0,0.64167 -0.3375,1.09717 -0.75,1.01223 -0.4125,-0.0849 -2.55,0.64485 -4.75,1.62178 -2.2,0.97692 -4.45,1.85556 -5,1.95253 -0.55,0.097 -2.0125,0.73301 -3.25,1.41341 -1.2375,0.6804 -2.25,0.94115 -2.25,0.57946 0,-0.3617 -0.5625,-0.2127 -1.25,0.33109 -1.20424,0.95253 -19.01481,7.09657 -22.5323,7.77288 -0.94473,0.18165 -1.7177,0.39913 -1.7177,0.48329 0,0.0842 -0.675,0.31124 -1.5,0.50462 -0.825,0.19338 -5.00533,1.29481 -9.28961,2.44763 -4.28429,1.15282 -9.23429,2.32094 -11,2.59582 -5.51503,0.85858 -7.21039,1.18955 -7.21039,1.40764 0,0.21156 -0.77223,0.35016 -7.77705,1.39585 -2.07738,0.31011 -4.13291,0.78378 -4.56785,1.05258 -0.43494,0.26881 -3.68527,0.7397 -7.22295,1.04643 -3.53768,0.30672 -7.78215,0.75539 -9.43215,0.99703 -7.7656,1.13726 -15.5498,1.63248 -34.5,2.19484 -11.275,0.3346 -20.725,0.37625 -21,0.0926 z m 39.5,-20.24419 c 5.74455,-0.36464 8.48039,-0.66156 18.5,-2.00775 9.08425,-1.22053 13.27266,-1.90099 18.5,-3.00556 1.1,-0.23244 3.125,-0.63836 4.5,-0.90206 1.375,-0.26369 3.85,-0.78467 5.5,-1.15773 1.65,-0.37306 3.77864,-0.6483 4.73031,-0.61164 0.95167,0.0367 1.99526,-0.36204 2.3191,-0.88601 0.32383,-0.52398 1.0274,-0.6816 1.56349,-0.35028 0.53609,0.33132 1.5175,0.15596 2.1809,-0.38969 0.66341,-0.54565 2.5562,-1.21438 4.2062,-1.48606 1.65,-0.27169 4.19123,-0.96026 5.64718,-1.53016 1.45594,-0.5699 2.90757,-0.77579 3.22583,-0.45753 0.31826,0.31827 1.15203,0.12596 1.85282,-0.42735 0.7008,-0.55331 2.26791,-0.91902 3.48249,-0.81269 1.21457,0.10633 2.4489,-0.43362 2.74294,-1.19987 0.29404,-0.76626 0.9567,-1.13233 1.47258,-0.8135 0.51588,0.31883 1.25031,0.0743 1.63206,-0.54338 0.49179,-0.79573 0.94468,-0.72761 1.55379,0.23369 0.62001,0.9785 0.86395,1.01201 0.875,0.12018 0.016,-1.29024 5.50592,-3.9506 9.73506,-4.71749 1.34949,-0.24471 3.08961,-0.97275 3.86694,-1.61787 0.77732,-0.64512 1.41331,-0.86741 1.41331,-0.49397 0,0.37344 1.2375,-0.007 2.75,-0.84616 3.87711,-2.15024 10.60822,-4.92601 11.5,-4.74237 0.4125,0.0849 0.75,-0.32212 0.75,-0.90458 0,-0.58246 0.45,-0.7809 1,-0.44098 0.55,0.33992 1,0.14148 1,-0.44098 0,-0.58246 0.9,-1.05902 2,-1.05902 1.1,0 2,-0.525 2,-1.16667 0,-0.64166 0.28072,-0.88594 0.62382,-0.54284 0.71721,0.71721 8.07168,-2.84313 10.13492,-4.90637 1.25161,-1.25161 3.47102,-1.78467 4.722,-1.13412 0.26441,0.1375 1.18993,-0.7625 2.05671,-2 0.86678,-1.2375 2.15659,-2.25 2.86624,-2.25 0.70966,0 2.31095,-0.88521 3.55842,-1.96714 1.24747,-1.08193 3.56633,-2.54178 5.15301,-3.24411 C 682.7018,790.08641 684,789.17163 684,788.75589 684,788.34015 684.675,788 685.5,788 c 0.825,0 1.5,-0.45 1.5,-1 0,-0.55 0.675,-1 1.5,-1 0.825,0 1.5,-0.45 1.5,-1 0,-0.55 0.675,-1 1.5,-1 0.825,0 1.5,-0.45 1.5,-1 0,-0.55 0.675,-1 1.5,-1 0.825,0 1.5,-0.45 1.5,-1 0,-0.55 0.51615,-1 1.14701,-1 0.63085,0 3.21835,-1.68082 5.75,-3.73516 2.53164,-2.05434 5.19774,-4.19184 5.92467,-4.75 0.72692,-0.55816 2.20198,-1.8149 3.2779,-2.79275 1.07593,-0.97785 4.03423,-3.36408 6.57401,-5.30273 6.99403,-5.33866 9.76032,-7.88537 22.72311,-20.91936 15.95464,-16.04226 18.60027,-18.88832 18.62024,-20.03081 0.009,-0.53306 1.92182,-3.03697 4.25,-5.56426 2.32818,-2.52729 4.90806,-5.60676 5.73306,-6.84327 1.39202,-2.08637 3.52158,-4.85249 5.98146,-7.76945 0.5602,-0.66429 1.01854,-1.62865 1.01854,-2.14301 0,-0.51437 0.73941,-1.21896 1.64313,-1.56575 0.90372,-0.34679 1.37094,-0.90272 1.03826,-1.23539 -0.33267,-0.33267 0.94894,-2.50107 2.84802,-4.81865 1.89909,-2.31758 3.15687,-4.5098 2.79507,-4.8716 C 784.96268,687.29602 785.19167,687 785.83333,687 786.475,687 787,686.325 787,685.5 c 0,-0.825 0.3469,-1.5 0.77089,-1.5 0.42398,0 1.88648,-2.1375 3.25,-4.75 1.36351,-2.6125 2.7166,-4.975 3.00687,-5.25 0.80013,-0.75806 13.10878,-25.90911 12.83417,-26.22489 -0.13159,-0.15131 1.07933,-2.52511 2.69094,-5.27511 1.61161,-2.75 2.8788,-5.225 2.81598,-5.5 -0.14408,-0.63075 0.44284,-2.55855 2.13115,-7 1.73314,-4.55938 2.27318,-6.36479 2.12268,-7.09631 -0.0675,-0.32796 0.49492,-1.34046 1.24976,-2.25 C 818.62729,619.74416 818.90969,619 818.5,619 c -0.40969,0 -0.18469,-0.675 0.5,-1.5 0.68469,-0.825 0.90969,-1.5 0.5,-1.5 -0.40969,0 -0.18469,-0.675 0.5,-1.5 0.68469,-0.825 0.95875,-1.5 0.60902,-1.5 -0.34972,0 0.0222,-1.575 0.82653,-3.5 0.80432,-1.925 1.2338,-3.5 0.95441,-3.5 -0.2794,0 -0.15695,-0.5625 0.27209,-1.25 0.42905,-0.6875 0.91085,-2.15 1.07066,-3.25 0.15981,-1.1 0.5783,-2.675 0.92997,-3.5 0.70878,-1.66276 1.29596,-3.72624 1.70736,-6 0.14926,-0.825 0.57711,-2.175 0.95078,-3 0.37366,-0.825 0.92338,-3.075 1.22159,-5 0.70251,-4.53469 1.05618,-6.16559 1.73485,-8 0.30522,-0.825 0.59048,-2.175 0.63392,-3 0.26078,-4.9531 1.31603,-12.92532 2.05168,-15.5 0.47144,-1.65 0.87163,-3.675 0.88932,-4.5 0.0647,-3.01752 1.174,-17.78326 2.14116,-28.5 0.96862,-10.73291 0.93209,-13.39426 -0.43919,-32 -0.36482,-4.95 -0.87424,-11.925 -1.13204,-15.5 -0.5322,-7.38033 -0.92235,-10.78885 -1.88865,-16.5 -0.37223,-2.2 -0.82359,-5.125 -1.00303,-6.5 -0.17943,-1.375 -0.60182,-3.625 -0.93864,-5 -0.33683,-1.375 -0.83137,-3.625 -1.09899,-5 -0.26762,-1.375 -1.12225,-4.8625 -1.89918,-7.75 -0.77693,-2.8875 -1.21249,-5.25 -0.96792,-5.25 0.24457,0 2.6e-4,-0.83038 -0.54291,-1.8453 -0.54316,-1.01491 -1.25764,-3.15241 -1.58773,-4.75 -0.79371,-3.84148 -1.2972,-5.84907 -1.54355,-6.1547 -0.11083,-0.1375 -0.28906,-0.5875 -0.39606,-1 -1.49102,-5.74803 -2.94655,-9.98855 -3.77567,-11 -0.56357,-0.6875 -0.68947,-1.25 -0.27978,-1.25 0.40969,0 0.18469,-0.675 -0.5,-1.5 -0.68469,-0.825 -0.90969,-1.5 -0.5,-1.5 0.40969,0 0.18469,-0.675 -0.5,-1.5 -0.68469,-0.825 -0.90969,-1.5 -0.5,-1.5 0.40969,0 0.18469,-0.675 -0.5,-1.5 -0.68469,-0.825 -0.93935,-1.5 -0.56591,-1.5 0.37344,0 0.0334,-1.2375 -0.75573,-2.75 -0.7891,-1.5125 -1.98691,-4.1 -2.66182,-5.75 -0.6749,-1.65 -1.96722,-4.53982 -2.87182,-6.42182 -0.9046,-1.882 -1.68152,-3.682 -1.72649,-4 -0.15083,-1.06651 -8.49482,-17.52297 -11.44791,-22.57818 -1.60646,-2.75 -3.41013,-6.11584 -4.00814,-7.47965 -0.59802,-1.3638 -1.40086,-2.7138 -1.7841,-3 -1.0556,-0.78829 -6.17775,-8.8679 -6.18043,-9.74891 -10e-4,-0.42429 -1.35345,-2.34644 -3.00481,-4.27144 -1.65136,-1.925 -3.25563,-4.2875 -3.56504,-5.25 C 777.11838,323.7875 776.44555,323 775.93261,323 775.41968,323 775,322.53101 775,321.95779 c 0,-0.57321 -0.46423,-1.58571 -1.03163,-2.25 -0.56739,-0.66428 -2.59204,-3.00779 -4.49922,-5.20779 -1.90717,-2.2 -3.46794,-4.30973 -3.46837,-4.68828 -4.3e-4,-0.37856 -1.33871,-2.15313 -2.97396,-3.94349 -1.63524,-1.79037 -2.74613,-3.48226 -2.46863,-3.75975 0.2775,-0.2775 -0.3431,-0.97793 -1.3791,-1.55651 -1.036,-0.57858 -5.79668,-5.47196 -10.57929,-10.87418 -4.78261,-5.40222 -10.81158,-11.71147 -13.39772,-14.02057 -2.58615,-2.3091 -5.83628,-5.31411 -7.22253,-6.67779 -1.38625,-1.36369 -4.50709,-4.05443 -6.93522,-5.97943 -2.42812,-1.925 -5.56891,-4.50551 -6.97955,-5.73447 C 709.04414,252.89149 695.7222,243.34901 683.94823,235.6931 674.46028,229.52366 648.35779,215 646.75778,215 c -0.56194,0 -2.51179,-0.92092 -4.333,-2.04649 -1.82121,-1.12557 -4.12433,-2.23319 -5.11804,-2.46139 C 635.87788,210.164 617.50853,203.30695 610,200.29885 c -0.825,-0.33051 -2.08806,-0.7219 -2.80681,-0.86974 -0.71874,-0.14785 -4.54374,-1.28069 -8.5,-2.51741 -8.79568,-2.74954 -8.51377,-2.67078 -12.19319,-3.40632 -1.65,-0.32985 -4.8,-1.08982 -7,-1.68882 -2.2,-0.599 -4.9,-1.21207 -6,-1.36237 -1.1,-0.15031 -3.35,-0.57183 -5,-0.93672 -4.40555,-0.97426 -7.30661,-1.41103 -14,-2.10776 -3.3,-0.3435 -6.28111,-0.79292 -6.6247,-0.99871 -0.34358,-0.20578 -4.84358,-0.63962 -10,-0.96408 -5.15641,-0.32446 -9.98601,-0.78713 -10.73243,-1.02815 -1.32045,-0.42637 -34.12823,-0.38439 -43.14287,0.0552 -2.475,0.1207 -8.1,0.72361 -12.5,1.3398 -11.29707,1.5821 -17.75896,2.36364 -19.5,2.35847 -0.825,-0.002 -2.175,0.25076 -3,0.56269 -2.24395,0.84842 -3.26144,1.06454 -13,2.76126 -1.925,0.33538 -5.5635,1.27253 -8.08557,2.08254 -2.52206,0.81002 -5.67206,1.71248 -7,2.00547 -3.86601,0.85298 -5.39705,1.24876 -5.66443,1.46428 -0.26891,0.21675 -0.26001,0.21409 -4.75,1.42093 -1.65,0.4435 -3.5625,1.24941 -4.25,1.79091 -0.6875,0.54151 -1.25,0.64936 -1.25,0.23967 0,-0.40969 -0.5625,-0.31728 -1.25,0.20536 -0.6875,0.52264 -3.5,1.74037 -6.25,2.70607 -7.06109,2.47959 -7.99431,2.75839 -8.04398,2.40312 -0.0242,-0.173 -1.26169,0.48332 -2.75,1.4585 -1.48831,0.97518 -2.70602,1.54113 -2.70602,1.25766 0,-0.28346 -2.5875,0.81543 -5.75,2.44199 -3.1625,1.62655 -9.125,4.56247 -13.25,6.52427 -8.10661,3.8554 -15.19982,7.65807 -16,8.57761 -0.275,0.31602 -2.525,1.66183 -5,2.9907 -2.475,1.32887 -5.89248,3.43281 -7.59439,4.67542 -1.70192,1.24262 -3.57692,2.2593 -4.16667,2.2593 -0.58975,0 -1.22227,0.34316 -1.40561,0.76258 C 330.43202,237.68069 320.25496,245 319.3797,245 c -0.33862,0 -2.11529,1.2375 -3.94816,2.75 -1.83287,1.5125 -4.50122,3.65 -5.92965,4.75 -1.42844,1.1 -3.66641,2.9 -4.97327,4 -1.30686,1.1 -4.29978,3.575 -6.65092,5.5 -6.30261,5.16027 -17.53331,15.73273 -23.31233,21.94598 -2.78595,2.99529 -7.20287,7.52927 -9.81537,10.07551 -2.6125,2.54625 -4.75,4.9126 -4.75,5.25857 0,0.34597 -1.0125,1.71845 -2.25,3.04996 -3.95479,4.25523 -6.21397,7.06859 -9.03698,11.25374 -1.51504,2.24607 -3.64526,5.03976 -4.73382,6.20819 -1.08856,1.16843 -1.98697,2.48074 -1.99648,2.91624 -0.01,0.43549 -1.02981,1.75078 -2.26736,2.92286 -1.23755,1.17208 -2.91655,3.42208 -3.73113,5 -0.81457,1.57792 -1.72836,3.09395 -2.03065,3.36895 -0.30228,0.275 -1.84857,2.75 -3.4362,5.5 -1.58763,2.75 -3.47852,5.59464 -4.20199,6.32143 -0.72346,0.72678 -1.31539,1.74694 -1.31539,2.26702 0,0.52008 -1.97524,4.20043 -4.38942,8.17857 -2.41419,3.97814 -5.61964,9.93298 -7.12323,13.23298 -1.50358,3.3 -3.36362,7.35 -4.13341,9 -0.76979,1.65 -1.29744,3.225 -1.17256,3.5 0.12488,0.275 -0.6041,2.075 -1.61996,4 -3.02481,5.7319 -3.56142,6.92543 -3.56142,7.92133 0,0.52166 -0.52479,2.21527 -1.16621,3.76357 -0.64141,1.54831 -1.26016,3.1526 -1.375,3.5651 -0.11483,0.4125 -0.32129,0.975 -0.45879,1.25 -0.1375,0.275 -0.3625,0.95 -0.5,1.5 -0.1375,0.55 -0.33969,1.1125 -0.44931,1.25 -0.10962,0.1375 -0.39983,1.33968 -0.6449,2.67152 -0.24508,1.33183 -0.94174,3.01933 -1.54814,3.75 -0.60639,0.73066 -0.8164,1.32848 -0.46667,1.32848 0.34972,0 -0.0222,1.575 -0.82653,3.5 -0.80432,1.925 -1.25432,3.5 -1,3.5 0.25431,0 -0.19569,1.575 -1,3.5 -0.80432,1.925 -1.20526,3.5 -0.89098,3.5 0.31428,0 0.12766,0.5625 -0.41472,1.25 -0.54237,0.6875 -1.01134,1.925 -1.04214,2.75 -0.0308,0.825 -0.31715,2.5125 -0.63631,3.75 -0.31917,1.2375 -0.84081,3.2625 -1.15921,4.5 -0.65006,2.52656 -1.36606,6.03029 -1.99244,9.75 -0.23154,1.375 -0.62523,3.625 -0.87487,5 -1.13367,6.24417 -1.60959,10.0173 -2.1409,16.97327 -0.31395,4.11029 -0.77458,7.80295 -1.02362,8.20591 -0.24904,0.40296 -0.713,7.61499 -1.03102,16.02674 -0.31802,8.41174 -0.64122,16.19408 -0.71823,17.29408 -0.47039,6.71927 3.99636,51.73851 5.90351,59.5 0.33786,1.375 0.76308,3.4 0.94493,4.5 0.18186,1.1 0.62983,3.35 0.9955,5 0.36568,1.65 0.69272,3.675 0.72676,4.5 0.0341,0.825 0.50567,2.0625 1.04804,2.75 0.54238,0.6875 0.75343,1.25 0.46901,1.25 -0.45605,0 0.11116,2.89781 1.85953,9.5 0.2913,1.1 0.69389,2.675 0.89466,3.5 0.20076,0.825 0.4329,1.5 0.51585,1.5 0.0829,0 0.34762,1.125 0.58815,2.5 0.24053,1.375 0.73072,3.175 1.08932,4 0.3586,0.825 0.74711,1.8375 0.86336,2.25 0.11626,0.4125 0.30106,0.8625 0.41068,1 0.10962,0.1375 0.40375,1.36538 0.65361,2.72861 0.24987,1.36324 0.85627,2.88058 1.34755,3.37186 0.49128,0.49128 0.65526,1.51341 0.3644,2.27139 -0.29087,0.75797 -0.0307,1.37814 0.57814,1.37814 0.60885,0 1.10699,0.825 1.10699,1.83333 0,1.00834 0.3116,2.14493 0.69244,2.52577 0.38084,0.38084 0.84287,1.6782 1.02674,2.88301 0.18387,1.20481 1.00764,3.21822 1.83061,4.47423 0.82298,1.25601 1.20919,2.28366 0.85825,2.28366 -0.35093,0 0.0217,1.0125 0.82808,2.25 0.80638,1.2375 1.34795,3.0375 1.20349,4 -0.14445,0.9625 0.15868,1.75 0.67362,1.75 0.9556,0 3.34091,4.89074 3.04825,6.25 -0.0888,0.4125 0.31508,0.75 0.89754,0.75 0.58246,0 0.7809,0.45 0.44098,1 -0.33992,0.55 -0.0665,1 0.60765,1 0.67413,0 0.95902,0.26667 0.63309,0.59259 -0.64391,0.64392 8.40307,18.60427 10.27961,20.40741 0.2862,0.275 1.1862,1.81516 2,3.42257 2.8441,5.6176 3.45944,6.57743 4.21678,6.57743 0.41958,0 0.76287,0.60501 0.76287,1.34446 0,0.73945 1.12445,2.65195 2.49878,4.25 1.37433,1.59805 2.49933,3.46804 2.5,4.15554 6.7e-4,0.6875 0.45122,1.25 1.00122,1.25 0.55,0 1,0.675 1,1.5 0,0.825 0.45,1.5 1,1.5 0.55,0 1,0.68912 1,1.53138 0,0.84227 0.675,1.79041 1.5,2.10699 0.825,0.31659 1.5,1.00961 1.5,1.54005 0,0.53044 0.5625,1.59602 1.25,2.36796 0.6875,0.77194 2.15,2.59325 3.25,4.04734 1.1,1.4541 2.80391,3.50678 3.78647,4.56152 0.98257,1.05474 1.5923,2.2388 1.35496,2.63123 -0.23733,0.39244 0.19626,1.29377 0.96353,2.00296 0.76727,0.70918 1.40935,0.93418 1.42684,0.5 0.0175,-0.43419 0.70655,0.11057 1.53124,1.21057 6.29352,8.39451 23.81043,26.46845 34.89051,36 6.31747,5.43455 8.54645,7.71599 8.54645,8.74758 0,0.47875 0.4119,0.61589 0.91533,0.30475 0.77683,-0.48011 3.9169,1.66129 8.71214,5.94133 0.62011,0.55349 2.13775,1.68134 3.37253,2.50634 1.23478,0.825 2.83278,2.0625 3.5511,2.75 0.71832,0.6875 1.582,1.25 1.91928,1.25 0.33729,0 1.57928,0.9 2.75999,2 1.18072,1.1 2.7369,2 3.45819,2 0.72129,0 1.31144,0.45 1.31144,1 0,0.55 0.675,1 1.5,1 0.825,0 1.5,0.45 1.5,1 0,0.55 0.675,1 1.5,1 0.825,0 1.5,0.45 1.5,1 0,0.55 0.675,1 1.5,1 0.825,0 1.5,0.34329 1.5,0.76287 0,0.41958 0.88159,1.20708 1.95908,1.75 6.5778,3.31437 14.61481,7.87442 15.04606,8.53684 0.27782,0.42676 5.90282,3.24135 12.5,6.25465 17.46085,7.97534 19.91287,9.02141 20.74486,8.85008 0.4125,-0.0849 0.75,0.29556 0.75,0.84556 0,0.55 0.3375,0.9164 0.75,0.81423 0.4125,-0.10218 2.55,0.60354 4.75,1.56827 2.2,0.96472 4.7875,1.81908 5.75,1.89858 0.9625,0.0795 1.75,0.49877 1.75,0.93172 0,0.43296 0.84504,0.7872 1.87788,0.7872 1.03283,0 3.50783,0.68104 5.5,1.51342 1.99216,0.83238 3.62212,1.22728 3.62212,0.87756 0,-0.34973 0.675,-0.0757 1.5,0.60902 0.825,0.68469 1.5,0.90969 1.5,0.5 0,-0.40969 0.675,-0.18469 1.5,0.5 0.825,0.68469 1.5,1.00883 1.5,0.72031 0,-0.28851 2.1375,0.14174 4.75,0.95612 2.6125,0.81439 6.1,1.71493 7.75,2.00121 1.65,0.28628 3.73858,0.91558 4.64129,1.39844 1.4739,0.78839 3.37401,1.17677 11.85871,2.42392 2.37896,0.34968 8.17686,1.27146 12.5,1.98732 2.69061,0.44553 12.17371,1.63951 16.5,2.07745 1.925,0.19486 9.125,0.63646 16,0.98134 6.875,0.34487 12.725,0.85347 13,1.13021 0.44478,0.4476 4.58105,0.26928 27.5,-1.18551 z M 519.50708,731.01145 c -0.35034,-0.56686 0.0511,-0.7345 0.94098,-0.39301 1.73242,0.66479 2.04939,1.38156 0.61096,1.38156 -0.51754,0 -1.21592,-0.44485 -1.55194,-0.98855 z m -41.69458,-0.69456 c 0.72187,-0.28887 1.58438,-0.25335 1.91667,0.0789 0.33229,0.33229 -0.25834,0.56864 -1.3125,0.52522 -1.16495,-0.048 -1.4019,-0.28494 -0.60417,-0.60416 z m 30.9375,0.0208 c 0.6875,-0.27741 1.8125,-0.27741 2.5,0 0.6875,0.27741 0.125,0.50439 -1.25,0.50439 -1.375,0 -1.9375,-0.22698 -1.25,-0.50439 z m 21,-1 c 0.6875,-0.27741 1.8125,-0.27741 2.5,0 0.6875,0.27741 0.125,0.50439 -1.25,0.50439 -1.375,0 -1.9375,-0.22698 -1.25,-0.50439 z m -128.9375,-8.02083 c 0.72187,-0.28887 1.58438,-0.25335 1.91667,0.0789 0.33229,0.33229 -0.25834,0.56864 -1.3125,0.52522 -1.16495,-0.048 -1.4019,-0.28494 -0.60417,-0.60416 z m 81.45653,-4.00988 c 0.97297,-0.25354 2.32297,-0.23687 3,0.0371 0.67703,0.27393 -0.11903,0.48137 -1.76903,0.46099 -1.65,-0.0204 -2.20394,-0.2445 -1.23097,-0.49804 z m 10,-1 c 0.97297,-0.25354 2.32297,-0.23687 3,0.0371 0.67703,0.27393 -0.11903,0.48137 -1.76903,0.46099 -1.65,-0.0204 -2.20394,-0.2445 -1.23097,-0.49804 z m 38.54347,-0.99012 c 0.72187,-0.28887 1.58438,-0.25335 1.91667,0.0789 0.33229,0.33229 -0.25834,0.56864 -1.3125,0.52522 -1.16495,-0.048 -1.4019,-0.28494 -0.60417,-0.60416 z m 16.9375,0.0208 c 0.6875,-0.27741 1.8125,-0.27741 2.5,0 0.6875,0.27741 0.125,0.50439 -1.25,0.50439 -1.375,0 -1.9375,-0.22698 -1.25,-0.50439 z m 17.0625,-2.02083 c 0.72187,-0.28887 1.58438,-0.25335 1.91667,0.0789 0.33229,0.33229 -0.25834,0.56864 -1.3125,0.52522 -1.16495,-0.048 -1.4019,-0.28494 -0.60417,-0.60416 z M 576,711 c -0.90129,-0.58246 -1.02463,-0.97549 -0.30902,-0.98469 0.65504,-0.008 1.4691,0.43469 1.80902,0.98469 0.7673,1.24153 0.42112,1.24153 -1.5,0 z m -167.1875,-0.68311 c 0.72187,-0.28887 1.58438,-0.25335 1.91667,0.0789 0.33229,0.33229 -0.25834,0.56864 -1.3125,0.52522 -1.16495,-0.048 -1.4019,-0.28494 -0.60417,-0.60416 z M 675,698 c -0.90129,-0.58246 -1.02463,-0.97549 -0.30902,-0.98469 0.65504,-0.008 1.4691,0.43469 1.80902,0.98469 0.7673,1.24153 0.42112,1.24153 -1.5,0 z M 303,676.5 c -1.375,-0.78602 -2.05,-1.42913 -1.5,-1.42913 0.55,0 2.125,0.64311 3.5,1.42913 1.375,0.78602 2.05,1.42913 1.5,1.42913 -0.55,0 -2.125,-0.64311 -3.5,-1.42913 z m -34.56291,-9.75 -2.93709,-3.25 3.25,2.93709 c 3.02946,2.73778 3.70965,3.56291 2.93709,3.56291 -0.1721,0 -1.6346,-1.4625 -3.25,-3.25 z m -5.10376,-4.20601 c 0,-0.80081 0.38234,-1.21971 0.84965,-0.9309 0.4673,0.28881 0.59075,0.94401 0.27431,1.45601 -0.80862,1.30838 -1.12396,1.16106 -1.12396,-0.52511 z m -2.72024,-3.72697 c 0.28881,-0.4673 0.94401,-0.59075 1.45601,-0.27431 1.30838,0.80862 1.16106,1.12396 -0.52511,1.12396 -0.80081,0 -1.21971,-0.38234 -0.9309,-0.84965 z m 16.72024,-1.46781 c 0,-0.9845 0.33697,-1.0378 1.33334,-0.21089 0.73333,0.60861 1.33333,1.20147 1.33333,1.31746 0,0.11599 -0.6,0.21089 -1.33333,0.21089 -0.73334,0 -1.33334,-0.59286 -1.33334,-1.31746 z m 445.26968,-1.18254 c -0.28327,-0.45834 0.12038,-0.83334 0.89699,-0.83334 0.77661,0 1.18026,0.375 0.89699,0.83334 C 724.11373,656.625 723.71008,657 723.5,657 c -0.21008,0 -0.61373,-0.375 -0.89699,-0.83333 z m 22.97959,-2.03302 c -0.29449,-0.4765 0.46645,-1.714 1.69098,-2.75 2.2206,-1.87872 2.22184,-1.87821 0.47424,0.1975 -0.9637,1.14463 -1.4512,2.38213 -1.08334,2.75 0.36787,0.36787 0.39541,0.66885 0.0612,0.66885 -0.3342,0 -0.84859,-0.38986 -1.14308,-0.86635 z M 266.25218,636.5 c 0.0111,-2.2 0.21589,-2.98225 0.45508,-1.73834 0.23919,1.24391 0.23011,3.04391 -0.0202,4 -0.25029,0.95609 -0.446,-0.0617 -0.4349,-2.26166 z m -12.05723,-3 c 0.0204,-1.65 0.2445,-2.20394 0.49804,-1.23097 0.25354,0.97297 0.23687,2.32297 -0.0371,3 -0.27393,0.67703 -0.48137,-0.11903 -0.46099,-1.76903 z M 467,634.30158 c -7.26903,-0.75843 -25.59962,-3.24725 -28,-3.80167 -1.375,-0.31759 -4.3,-0.80347 -6.5,-1.07974 -2.2,-0.27626 -4.9,-0.79383 -6,-1.15015 -1.1,-0.35631 -2.45,-0.76153 -3,-0.90047 -3.43061,-0.86667 -6.31728,-1.53501 -8.5,-1.96799 -1.375,-0.27275 -4.3,-1.00588 -6.5,-1.62918 -2.2,-0.62331 -4.225,-1.17147 -4.5,-1.21815 -0.275,-0.0467 -1.0625,-0.44202 -1.75,-0.87856 -0.6875,-0.43654 -1.25,-0.53611 -1.25,-0.22127 0,0.31484 -1.6875,-0.14264 -3.75,-1.01663 -2.0625,-0.87398 -5.775,-2.27665 -8.25,-3.11703 -5.41137,-1.83741 -22.92439,-10.0131 -24.82144,-11.58751 -1.06605,-0.88475 -0.0377,-1.76333 4.88873,-4.17683 l 6.23876,-3.0564 2.23819,-8.5 c 1.231,-4.675 3.80088,-13 5.71086,-18.5 2.87868,-8.28953 3.79529,-9.94865 5.35879,-9.69977 1.03736,0.16512 2.44861,0.35262 3.13611,0.41666 0.6875,0.064 1.25,0.49144 1.25,0.94978 0,0.45833 0.3375,0.74081 0.75,0.62773 0.4125,-0.11308 2.2125,0.57347 4,1.52568 1.7875,0.9522 3.25689,1.38222 3.26531,0.9556 0.008,-0.42662 0.38641,-0.19064 0.83998,0.52441 0.45357,0.71506 1.79667,1.37332 2.98469,1.46281 1.18801,0.0895 2.16002,0.43187 2.16002,0.76085 0,0.49544 2.2288,1.20811 11,3.51735 0.275,0.0724 1.175,0.39377 2,0.71416 0.825,0.3204 2.625,0.80415 4,1.07502 1.375,0.27086 3.5125,0.75736 4.75,1.0811 5.43998,1.42315 6.86796,1.76809 8.75,2.11365 1.1,0.20197 3.125,0.63239 4.5,0.95649 3.79237,0.89388 7.93011,1.49725 14,2.04146 3.025,0.27122 6.89883,0.72295 8.60851,1.00384 1.70969,0.2809 6.61902,0.74511 10.90963,1.03158 4.2906,0.28648 8.06677,0.67343 8.39148,0.85988 0.32471,0.18646 6.21538,9.3e-4 13.09038,-0.41228 6.875,-0.41322 12.63577,-0.40131 12.80171,0.0265 0.16593,0.42778 1.78239,0.36893 3.59212,-0.13076 1.80973,-0.49969 5.72396,-1.10191 8.69829,-1.33827 2.97433,-0.23636 8.55788,-0.91621 12.40788,-1.51079 3.85,-0.59457 8.35,-1.27898 10,-1.5209 1.65,-0.24193 5.7966,-1.07644 9.21467,-1.85447 3.41806,-0.77803 6.44469,-1.18458 6.72583,-0.90344 0.28114,0.28115 1.08454,0.0399 1.78533,-0.5361 0.7008,-0.576 2.86352,-1.29708 4.80606,-1.6024 1.94253,-0.30531 5.20503,-1.2542 7.25,-2.10864 2.04496,-0.85444 3.71811,-1.26739 3.71811,-0.91767 0,0.34973 0.57648,0.15744 1.28106,-0.42732 0.70458,-0.58475 2.39208,-1.27552 3.75,-1.53503 1.35792,-0.25952 4.94394,-1.60015 7.96894,-2.97919 9.89267,-4.50986 13.48815,-5.97881 14.25,-5.82192 0.4125,0.0849 0.75,-0.20516 0.75,-0.64467 0,-0.43951 1.575,-1.36864 3.5,-2.06473 1.925,-0.69609 3.5,-1.68649 3.5,-2.20089 0,-0.5144 0.6375,-0.93527 1.41667,-0.93527 0.77916,0 1.5836,-0.50082 1.78764,-1.11293 0.33013,-0.9904 7.70822,20.96104 10.6768,31.76584 1.07012,3.89496 1.45088,4.22725 6.12994,5.34974 2.74392,0.65826 4.98895,1.76168 4.98895,2.45206 0,1.69135 -5.68946,6.34868 -9.96495,8.1572 -1.90573,0.80612 -3.70573,1.78571 -4,2.17688 C 623.30252,603.7625 600.60081,615 599.36626,615 c -0.54483,0 -2.76262,0.84912 -4.92843,1.88693 -5.42217,2.5982 -22.94829,8.11307 -25.78312,8.11307 -1.27676,0 -2.6344,0.31302 -3.01699,0.69561 -0.81377,0.81378 -3.41447,1.45201 -5.86803,1.44007 -0.95167,-0.005 -1.97858,0.3933 -2.28202,0.88428 -0.30345,0.49098 -1.21804,0.637 -2.03243,0.32449 -0.81439,-0.31251 -2.14998,-0.0128 -2.96797,0.66612 -0.818,0.67888 -1.48727,0.99049 -1.48727,0.69248 0,-0.29801 -1.4625,-0.14291 -3.25,0.34465 -1.7875,0.48757 -5.05,1.11011 -7.25,1.38342 -2.2,0.27331 -7.15,0.98965 -11,1.59186 -6.69557,1.04731 -55.20532,2.0397 -62.5,1.2786 z M 756.54271,601.0691 c -0.31644,-0.512 -0.19299,-1.1672 0.27431,-1.45601 0.46731,-0.28881 0.84965,0.13009 0.84965,0.9309 0,1.68617 -0.31534,1.83349 -1.12396,0.52511 z m -466.03563,-4.05765 c -0.35034,-0.56686 0.0511,-0.7345 0.94098,-0.39301 1.73242,0.66479 2.04939,1.38156 0.61096,1.38156 -0.51754,0 -1.21592,-0.44485 -1.55194,-0.98855 z m 54.30542,-0.69456 c 0.72187,-0.28887 1.58438,-0.25335 1.91667,0.0789 0.33229,0.33229 -0.25834,0.56864 -1.3125,0.52522 -1.16495,-0.048 -1.4019,-0.28494 -0.60417,-0.60416 z m -17,-9 c 0.72187,-0.28887 1.58438,-0.25335 1.91667,0.0789 0.33229,0.33229 -0.25834,0.56864 -1.3125,0.52522 -1.16495,-0.048 -1.4019,-0.28494 -0.60417,-0.60416 z m 16,-3 c 0.72187,-0.28887 1.58438,-0.25335 1.91667,0.0789 0.33229,0.33229 -0.25834,0.56864 -1.3125,0.52522 -1.16495,-0.048 -1.4019,-0.28494 -0.60417,-0.60416 z m 13,-2 c 0.72187,-0.28887 1.58438,-0.25335 1.91667,0.0789 0.33229,0.33229 -0.25834,0.56864 -1.3125,0.52522 -1.16495,-0.048 -1.4019,-0.28494 -0.60417,-0.60416 z M 715,576.60699 c 0,-0.21616 0.69837,-0.661 1.55194,-0.98855 0.88992,-0.34149 1.29132,-0.17385 0.94098,0.39301 C 716.90566,576.96166 715,577.4169 715,576.60699 Z m -59.75,-12.29632 c 0.9625,-0.25152 2.5375,-0.25152 3.5,0 0.9625,0.25153 0.175,0.45733 -1.75,0.45733 -1.925,0 -2.7125,-0.2058 -1.75,-0.45733 z m -266.79112,-10.3772 c -0.36253,-0.58659 -0.44468,-1.281 -0.18255,-1.54313 0.26212,-0.26213 0.74306,0.21781 1.06875,1.06653 0.67618,1.76211 0.0999,2.07206 -0.8862,0.4766 z m 227.10541,-6.2266 c 0.37553,-0.98622 0.93469,-1.54122 1.24258,-1.23333 0.30789,0.30789 6.4e-4,1.11479 -0.68278,1.79313 -0.98762,0.98026 -1.10248,0.8654 -0.5598,-0.5598 z M 628,544.05902 c 0,-0.51754 0.44485,-1.21592 0.98855,-1.55194 0.56686,-0.35034 0.7345,0.0511 0.39301,0.94098 C 628.71677,545.18048 628,545.49745 628,544.05902 Z m -1,-3 c 0,-0.51754 0.44485,-1.21592 0.98855,-1.55194 0.56686,-0.35034 0.7345,0.0511 0.39301,0.94098 C 627.71677,542.18048 627,542.49745 627,541.05902 Z m -17,-53 c 0,-0.51754 0.44485,-1.21592 0.98855,-1.55194 0.56686,-0.35034 0.7345,0.0511 0.39301,0.94098 C 610.71677,489.18048 610,489.49745 610,488.05902 Z M 583.15789,432 c 0,-1.375 0.22698,-1.9375 0.50439,-1.25 0.27741,0.6875 0.27741,1.8125 0,2.5 -0.27741,0.6875 -0.50439,0.125 -0.50439,-1.25 z m 10.92106,-4.58333 c 0.048,-1.16495 0.28494,-1.4019 0.60416,-0.60417 0.28887,0.72187 0.25335,1.58438 -0.0789,1.91667 -0.33229,0.33229 -0.56864,-0.25834 -0.52522,-1.3125 z M 592.15789,416 c 0,-1.375 0.22698,-1.9375 0.50439,-1.25 0.27741,0.6875 0.27741,1.8125 0,2.5 -0.27741,0.6875 -0.50439,0.125 -0.50439,-1.25 z m -2.07894,-17.58333 c 0.048,-1.16495 0.28494,-1.4019 0.60416,-0.60417 0.28887,0.72187 0.25335,1.58438 -0.0789,1.91667 -0.33229,0.33229 -0.56864,-0.25834 -0.52522,-1.3125 z m -13,-22 c 0.048,-1.16495 0.28494,-1.4019 0.60416,-0.60417 0.28887,0.72187 0.25335,1.58438 -0.0789,1.91667 -0.33229,0.33229 -0.56864,-0.25834 -0.52522,-1.3125 z M 351.66667,338.33333 C 351.3,337.96667 351,337.20167 351,336.63333 c 0,-0.6266 0.46577,-0.56756 1.18333,0.15 0.65084,0.65084 0.95084,1.41584 0.66667,1.7 -0.28417,0.28417 -0.81667,0.21667 -1.18333,-0.15 z m 253.14583,-2.01644 c 0.72187,-0.28887 1.58438,-0.25335 1.91667,0.0789 0.33229,0.33229 -0.25834,0.56864 -1.3125,0.52522 -1.16495,-0.048 -1.4019,-0.28494 -0.60417,-0.60416 z M 500.61309,320.81702 c 0.28881,-0.4673 0.94401,-0.59075 1.45601,-0.27431 1.30838,0.80862 1.16106,1.12396 -0.52511,1.12396 -0.80081,0 -1.21971,-0.38234 -0.9309,-0.84965 z m 152.12024,-13.94111 c 0.67834,-0.68342 1.48524,-0.99067 1.79313,-0.68278 0.30789,0.30789 -0.24711,0.86705 -1.23333,1.24258 -1.4252,0.54268 -1.54006,0.42782 -0.5598,-0.5598 z M 498.54271,303.0691 c -0.31644,-0.512 -0.11799,-1.21356 0.44098,-1.55902 0.55897,-0.34546 1.01631,-0.32146 1.01631,0.0533 0,0.3748 0.7875,0.0716 1.75,-0.67375 1.42464,-1.10326 1.39583,-0.9401 -0.15499,0.87755 -2.1624,2.53447 -2.26379,2.57772 -3.0523,1.30187 z m 25.03989,-4.93545 c -0.29449,-0.4765 0.46645,-1.714 1.69098,-2.75 2.2206,-1.87872 2.22184,-1.87821 0.47424,0.1975 -0.9637,1.14463 -1.4512,2.38213 -1.08334,2.75 0.36787,0.36787 0.39541,0.66885 0.0612,0.66885 -0.3342,0 -0.84859,-0.38986 -1.14308,-0.86635 z M 530,291.62244 c 0,-0.20765 0.7875,-0.99515 1.75,-1.75 1.58606,-1.24387 1.62143,-1.2085 0.37756,0.37756 C 530.82119,291.91575 530,292.44548 530,291.62244 Z m 80.73333,-2.74653 c 0.67834,-0.68342 1.48524,-0.99067 1.79313,-0.68278 0.30789,0.30789 -0.24711,0.86705 -1.23333,1.24258 -1.4252,0.54268 -1.54006,0.42782 -0.5598,-0.5598 z m -75.19062,-0.80681 c -0.31644,-0.512 -0.19299,-1.1672 0.27431,-1.45601 0.46731,-0.28881 0.84965,0.13009 0.84965,0.9309 0,1.68617 -0.31534,1.83349 -1.12396,0.52511 z m 69.80901,-0.82918 c 0.36341,-0.58801 0.0954,-1.29701 -0.59549,-1.57556 -0.89914,-0.3625 -0.91769,-0.52891 -0.0652,-0.58541 1.72088,-0.11408 2.54754,1.6556 1.17082,2.50646 -0.69784,0.43129 -0.9039,0.29172 -0.51008,-0.34549 z m -80.01839,-8.57325 c 0,-0.73334 0.59286,-1.33334 1.31746,-1.33334 0.9845,0 1.0378,0.33697 0.21089,1.33334 C 526.25307,279.4 525.66021,280 525.54422,280 c -0.11599,0 -0.21089,-0.6 -0.21089,-1.33333 z M 586,265 c -0.90129,-0.58246 -1.02463,-0.97549 -0.30902,-0.98469 0.65504,-0.008 1.4691,0.43469 1.80902,0.98469 0.7673,1.24153 0.42112,1.24153 -1.5,0 z m -32.49292,-2.98855 c -0.35034,-0.56686 0.0511,-0.7345 0.94098,-0.39301 1.73242,0.66479 2.04939,1.38156 0.61096,1.38156 -0.51754,0 -1.21592,-0.44485 -1.55194,-0.98855 z M 568.75,260.33772 c 0.6875,-0.27741 1.8125,-0.27741 2.5,0 0.6875,0.27741 0.125,0.50439 -1.25,0.50439 -1.375,0 -1.9375,-0.22698 -1.25,-0.50439 z"
         id="path3" /><path
         style="fill:#b9bac9"
         d="m 506.76791,840.27527 c 1.79735,-0.22256 4.49735,-0.21797 6,0.0102 1.50265,0.22818 0.0321,0.41027 -3.26791,0.40466 -3.3,-0.006 -4.52944,-0.1923 -2.73209,-0.41486 z M 481.75,839.33772 c 0.6875,-0.27741 1.8125,-0.27741 2.5,0 0.6875,0.27741 0.125,0.50439 -1.25,0.50439 -1.375,0 -1.9375,-0.22698 -1.25,-0.50439 z m 48.01166,-0.045 c 1.24391,-0.23919 3.04391,-0.23011 4,0.0202 0.95609,0.25029 -0.0617,0.446 -2.26166,0.4349 -2.2,-0.0111 -2.98225,-0.21589 -1.73834,-0.45508 z m 10.98834,-0.955 c 0.6875,-0.27741 1.8125,-0.27741 2.5,0 0.6875,0.27741 0.125,0.50439 -1.25,0.50439 -1.375,0 -1.9375,-0.22698 -1.25,-0.50439 z m 16.0625,-2.02083 c 0.72187,-0.28887 1.58438,-0.25335 1.91667,0.0789 0.33229,0.33229 -0.25834,0.56864 -1.3125,0.52522 -1.16495,-0.048 -1.4019,-0.28494 -0.60417,-0.60416 z M 739,771.62244 c 0,-0.20765 0.7875,-0.99515 1.75,-1.75 1.58606,-1.24387 1.62143,-1.2085 0.37756,0.37756 C 739.82119,771.91575 739,772.44548 739,771.62244 Z M 299.87244,765.25 c -1.24387,-1.58606 -1.2085,-1.62143 0.37756,-0.37756 0.9625,0.75485 1.75,1.54235 1.75,1.75 0,0.82304 -0.82119,0.29331 -2.12756,-1.37244 z m -32.46745,-2.5 -1.90499,-2.25 2.25,1.90499 c 2.11444,1.79022 2.70524,2.59501 1.90499,2.59501 -0.18976,0 -1.20226,-1.0125 -2.25,-2.25 z M 722,760.62244 c 0,-0.20765 0.7875,-0.99515 1.75,-1.75 1.58606,-1.24387 1.62143,-1.2085 0.37756,0.37756 C 722.82119,760.91575 722,761.44548 722,760.62244 Z M 260.94617,756.25 257.5,752.5 l 3.75,3.44617 c 2.0625,1.89539 3.75,3.58289 3.75,3.75 0,0.76362 -0.84622,0.0442 -4.05383,-3.44617 z M 755,756.5 c 1.86578,-1.925 3.61733,-3.5 3.89233,-3.5 0.275,0 -1.02655,1.575 -2.89233,3.5 -1.86578,1.925 -3.61733,3.5 -3.89233,3.5 -0.275,0 1.02655,-1.575 2.89233,-3.5 z M 284.40499,751.75 282.5,749.5 l 2.25,1.90499 c 2.11444,1.79022 2.70524,2.59501 1.90499,2.59501 -0.18976,0 -1.20226,-1.0125 -2.25,-2.25 z M 736,747.5 c 3.54322,-3.575 6.66722,-6.5 6.94222,-6.5 0.275,0 -2.399,2.925 -5.94222,6.5 -3.54322,3.575 -6.66722,6.5 -6.94222,6.5 -0.275,0 2.399,-2.925 5.94222,-6.5 z m -465,-9 c -2.42903,-2.475 -4.19142,-4.5 -3.91642,-4.5 0.275,0 2.48739,2.025 4.91642,4.5 2.42903,2.475 4.19142,4.5 3.91642,4.5 -0.275,0 -2.48739,-2.025 -4.91642,-4.5 z M 747.5,736 c 2.14824,-2.2 4.1309,-4 4.4059,-4 0.275,0 -1.25766,1.8 -3.4059,4 -2.14824,2.2 -4.1309,4 -4.4059,4 -0.275,0 1.25766,-1.8 3.4059,-4 z M 469,731.38061 c -47.60407,-3.43225 -82.08958,-9.73281 -120,-21.92418 -24.17647,-7.77476 -55.73736,-21.45433 -54.41921,-23.58716 0.44965,-0.72754 0.29781,-0.91228 -0.39691,-0.48291 -1.4398,0.88984 -7.24789,-2.07288 -6.92658,-3.53326 0.13349,-0.60671 -0.4323,-1.30611 -1.2573,-1.55423 -1.33333,-0.40101 -1.33333,-0.33326 0,0.60969 0.825,0.58345 1.03763,1.06771 0.47251,1.07613 -1.75325,0.0261 -5.53703,-3.07127 -4.9373,-4.04166 0.31277,-0.50607 -0.0248,-0.6924 -0.75008,-0.41407 -0.72531,0.27833 -2.88618,-0.88265 -4.80194,-2.57994 -1.91575,-1.6973 -2.80819,-2.76517 -1.98319,-2.37305 0.825,0.39211 -0.50619,-1.37707 -2.95821,-3.93152 C 268.58978,666.09 266.36095,664 266.08884,664 c -0.2721,0 1.26292,1.8 3.41116,4 2.14824,2.2 3.4559,4 2.9059,4 -1.6679,0 -8.68103,-7.74582 -8.00439,-8.84064 0.34711,-0.56164 0.10424,-1.34679 -0.53971,-1.74477 -0.80071,-0.49487 -0.90324,-0.27963 -0.32435,0.6809 0.72092,1.19619 0.59551,1.20095 -0.84549,0.0321 -1.9527,-1.58395 -2.30513,-3.59846 -0.44196,-2.52625 0.72624,0.41793 0.90083,0.33791 0.41667,-0.19098 -0.45834,-0.50068 -1.34378,-0.91033 -1.96765,-0.91033 -0.62387,0 -2.49887,-2.66818 -4.16667,-5.92929 -2.75223,-5.38156 -3.03235,-6.81343 -3.03235,-15.5 0,-7.31408 0.42267,-10.34472 1.79259,-12.85341 0.98592,-1.80548 2.19233,-3.03564 2.6809,-2.73368 0.48857,0.30195 1.21394,0.0221 1.61192,-0.62182 0.45192,-0.73122 0.29014,-0.90292 -0.4309,-0.45729 -0.63498,0.39244 -1.15451,0.1837 -1.15451,-0.46386 0,-0.64757 2.82542,-3.93663 6.2787,-7.30902 6.65218,-6.49636 15.94016,-12.23243 17.87289,-11.03794 0.67142,0.41496 0.88827,0.27982 0.51642,-0.32185 -1.1085,-1.79359 13.88812,-7.58537 30.71435,-11.86204 11.52345,-2.92888 15.15297,-3.65526 34.52828,-6.91019 7.92585,-1.33149 14.73266,-2.7761 15.12623,-3.21025 0.39357,-0.43415 2.85215,-6.51889 5.4635,-13.52165 2.82577,-7.57774 5.16506,-12.47449 5.77829,-12.09549 0.61322,0.37899 0.72562,0.14372 0.27764,-0.58113 -1.01794,-1.64706 3.38429,-13.24584 4.71517,-12.42331 0.60854,0.37609 0.73646,0.15407 0.30938,-0.53696 -0.98704,-1.59706 2.40365,-10.25843 3.70181,-9.45613 0.59298,0.36649 0.72274,0.14306 0.3073,-0.52913 -1.01071,-1.63536 0.32602,-5.31552 1.63654,-4.50557 0.64797,0.40047 0.79387,0.20199 0.36346,-0.49443 -0.39548,-0.6399 -0.41581,-2.11889 -0.0452,-3.28664 0.54181,-1.70709 0.8669,-1.85231 1.65888,-0.74105 0.75997,1.06638 0.85377,0.97548 0.41055,-0.39785 -0.85849,-2.66011 9.85903,-30.16361 11.38629,-29.21971 0.44714,0.27635 0.55906,-0.46854 0.24872,-1.6553 -0.3838,-1.46765 -0.19773,-1.93122 0.5818,-1.44944 0.69752,0.43108 0.9493,0.19553 0.64332,-0.60184 -0.27651,-0.72058 2.87864,-9.37259 7.01145,-19.22668 C 411.61861,458.71296 415,450.4776 415,450.26624 c 0,-0.21135 0.51953,-0.0632 1.15451,0.32925 0.73577,0.45473 0.88218,0.2729 0.40368,-0.50134 -0.99606,-1.61166 1.38291,-7.24859 2.71237,-6.42693 0.61775,0.38178 0.73654,0.15329 0.29323,-0.56401 -0.98521,-1.5941 4.41142,-14.23657 5.72939,-13.42201 0.59951,0.37051 0.70668,0.12759 0.26149,-0.59275 -0.98787,-1.59841 6.41184,-18.22718 7.74449,-17.40356 0.59927,0.37037 0.69793,0.11942 0.24265,-0.61725 -0.9154,-1.48113 2.36426,-9.24373 3.58632,-8.48845 0.46693,0.28858 0.59541,-0.13605 0.28553,-0.94361 -0.70749,-1.84367 14.40008,-31.86873 15.64736,-31.09787 0.50384,0.31139 0.69999,-0.0197 0.4359,-0.73577 -0.70765,-1.91873 7.37208,-16.00093 8.70719,-15.17579 0.65657,0.40578 0.82275,0.22632 0.40953,-0.44227 -0.87223,-1.41131 2.15371,-7.4457 3.35985,-6.70026 0.48857,0.30195 1.21394,0.0221 1.61192,-0.62182 0.45192,-0.73122 0.29014,-0.90292 -0.4309,-0.45729 -1.64423,1.01619 -1.44423,0.20085 0.94339,-3.84586 1.15384,-1.95562 2.47275,-3.324 2.9309,-3.04085 0.45815,0.28315 1.15863,-0.0121 1.55661,-0.656 0.45192,-0.73122 0.29014,-0.90292 -0.4309,-0.45729 -1.74366,1.07764 -1.39186,-0.26244 0.92196,-3.5119 1.14205,-1.60387 2.44125,-2.69068 2.88709,-2.41513 0.44585,0.27555 0.74894,-0.28166 0.67354,-1.23824 -0.0758,-0.96193 0.45478,-1.61644 1.18723,-1.46446 0.72838,0.15112 1.0273,-0.20582 0.66427,-0.79322 -0.89622,-1.45012 4.36311,-8.19124 5.73109,-7.34579 0.66586,0.41153 0.80143,0.20742 0.34873,-0.52507 -0.86314,-1.39658 1.24266,-4.34549 2.53343,-3.54775 0.48138,0.29751 0.65322,-0.045 0.38185,-0.76101 -0.53235,-1.40475 21.03526,-25.83882 23.5163,-26.64175 1.32137,-0.42762 1.32592,-0.25767 0.0382,1.42719 -0.80399,1.05194 -0.0165,0.59093 1.75,-1.02447 3.64962,-3.33746 4.37809,-4.84716 0.96181,-1.9933 -1.2375,1.03378 -0.46187,-0.031 1.72363,-2.36618 2.49286,-2.6636 4.53106,-4.03187 5.46951,-3.67175 0.82275,0.31571 1.17113,0.24926 0.7742,-0.14768 -0.39694,-0.39693 0.024,-1.54572 0.93547,-2.55285 1.8707,-2.06711 3.8633,-2.49374 2.71425,-0.58115 -0.5165,0.85971 -0.22613,0.82433 0.92997,-0.11331 0.92452,-0.74982 1.45164,-1.73433 1.17138,-2.1878 -0.95678,-1.5481 14.87434,-11.1755 24.53159,-14.91842 7.01581,-2.71916 18.33723,-3.68659 24.62228,-2.104 8.51577,2.1443 20.44061,7.16275 19.73459,8.30511 -0.39739,0.643 -0.19676,0.7875 0.49757,0.35838 1.63536,-1.01071 5.31552,0.32602 4.50557,1.63654 -0.41641,0.67378 -0.19802,0.79142 0.57839,0.31157 1.7421,-1.07667 63.47168,25.56881 61.81389,26.68187 -0.77235,0.51858 -0.29417,0.65156 1.24771,0.347 3.05101,-0.60266 19.62577,7.3042 19.25,9.18306 -0.1375,0.6875 0.28003,1.1375 0.92784,1 0.64782,-0.1375 1.64625,1.0204 2.21876,2.57311 1.51324,4.10414 -1.50517,8.97744 -9.20313,14.85869 -6.06155,4.63103 -9.10189,6.09706 -7.59798,3.66369 0.44563,-0.72104 0.27393,-0.88282 -0.45729,-0.4309 -0.64395,0.39798 -0.86466,1.21898 -0.49047,1.82445 0.44194,0.71507 0.079,0.87008 -1.03562,0.44235 -0.98156,-0.37665 -1.46464,-0.2518 -1.12873,0.29172 1.17441,1.90023 -17.21471,9.66447 -31.96918,13.498 -5.10841,1.32728 -14.17642,3.13656 -20.15111,4.02062 -5.9747,0.88406 -11.98809,1.84647 -13.36309,2.13871 -2.04036,0.43364 -2.22422,0.3186 -1,-0.62569 1.0253,-0.79086 1.08068,-1.04589 0.175,-0.80588 -0.72875,0.19312 -1.34341,0.78988 -1.36591,1.32613 -0.0225,0.53625 -1.31982,2.43159 -2.88292,4.21187 -4.39151,5.00165 -5.33441,9.9576 -5.37721,28.26313 -0.0521,22.30024 2.86495,40.73841 11.99341,75.8071 2.47779,9.51891 4.19988,17.80094 3.82685,18.40451 -0.37303,0.60357 -0.24857,0.83186 0.27658,0.5073 1.26141,-0.77959 12.81551,36.72566 11.81343,38.34706 -0.47054,0.76135 -0.35821,0.98963 0.28989,0.58908 0.66506,-0.41103 3.70936,7.50572 8.19513,21.31158 3.92534,12.08105 7.56355,22.22917 8.0849,22.55139 1.00688,0.62228 2.92195,0.85299 20.81265,2.50729 27.18042,2.51328 60.97373,10.84173 77.40524,19.07671 11.55422,5.79063 23.17493,15.07284 22.54861,18.01103 -0.16261,0.76282 0.2889,1.2671 1.00335,1.12062 1.74108,-0.35698 5.15557,7.58714 5.87616,13.67139 0.75547,6.37876 -0.45536,15.00236 -1.82727,13.01383 -0.71916,-1.0424 -0.81325,-0.82907 -0.35461,0.804 1.03021,3.66824 -6.35018,18.10162 -8.55829,16.73693 -0.50165,-0.31003 -0.68391,0.0309 -0.40504,0.75762 0.27974,0.729 -1.80655,3.55404 -4.65397,6.30194 -2.83856,2.73934 -4.80235,4.34859 -4.36399,3.57611 0.55025,-0.96965 0.41897,-1.17086 -0.42401,-0.64986 -0.67157,0.41505 -0.95819,1.01749 -0.63693,1.33876 0.67285,0.67284 -5.40804,7.21561 -6.70623,7.21561 -0.47457,0 -0.52492,-0.5625 -0.11188,-1.25 0.51028,-0.84936 0.20868,-0.81011 -0.94098,0.12244 -1.97095,1.59875 -2.26381,2.58915 -0.44196,1.49462 0.84936,-0.51028 0.81011,-0.20868 -0.12244,0.94098 -1.53449,1.89172 -3.64605,2.33992 -2.53207,0.53745 0.44563,-0.72104 0.27393,-0.88282 -0.45729,-0.4309 -0.64395,0.39798 -0.93319,1.1081 -0.64275,1.57804 0.7702,1.24622 -5.27252,5.26318 -6.64313,4.4161 -0.70178,-0.43372 -0.8921,-0.28211 -0.48096,0.38313 0.38737,0.62678 -0.93803,2.20062 -3.07762,3.65451 -4.01487,2.72817 -5.85907,3.27737 -4.69825,1.39912 0.44563,-0.72104 0.27393,-0.88282 -0.45729,-0.4309 -0.64395,0.39798 -0.92588,1.11993 -0.6265,1.60434 0.74522,1.20579 -3.27882,3.24303 -4.68688,2.37281 -0.65864,-0.40707 -0.85952,-0.25691 -0.47931,0.35828 0.84275,1.3636 -10.0667,7.57095 -12.00128,6.82858 -0.79646,-0.30563 -1.18308,-0.12687 -0.85915,0.39725 0.91681,1.48345 -9.23788,6.22366 -11.79641,5.50657 -1.46773,-0.41137 -1.75944,-0.31456 -0.88559,0.2939 2.87175,1.99958 -31.88916,14.91896 -60.80308,22.59831 -37.11925,9.85863 -74.00039,14.54493 -118.5,15.05718 -16.5,0.18994 -32.475,0.1669 -35.5,-0.0512 z m 10.72917,-0.98478 c -0.33229,-0.33229 -1.1948,-0.36781 -1.91667,-0.0789 -0.79773,0.31922 -0.56078,0.55618 0.60417,0.60416 1.05416,0.0434 1.64479,-0.19293 1.3125,-0.52522 z m 31.07402,-0.14069 c -5.33324,-0.17945 -14.33324,-0.18018 -20,-0.002 -5.66675,0.17857 -1.30319,0.3254 9.69681,0.32628 11,8.9e-4 15.63644,-0.14522 10.30319,-0.32467 z m -42.53416,-0.91108 c -0.67703,-0.27392 -2.02703,-0.29059 -3,-0.0371 -0.97297,0.25354 -0.41903,0.47766 1.23097,0.49804 1.65,0.0204 2.44606,-0.18706 1.76903,-0.46099 z m 63.98097,-0.006 c -0.6875,-0.27741 -1.8125,-0.27741 -2.5,0 -0.6875,0.27741 -0.125,0.50439 1.25,0.50439 1.375,0 1.9375,-0.22698 1.25,-0.50439 z m -78.5,-1.02705 c -0.9625,-0.25152 -2.5375,-0.25152 -3.5,0 -0.9625,0.25153 -0.175,0.45733 1.75,0.45733 1.925,0 2.7125,-0.2058 1.75,-0.45733 z m 91.5,-0.0164 c -1.2375,-0.23836 -3.2625,-0.23836 -4.5,0 -1.2375,0.23835 -0.225,0.43337 2.25,0.43337 2.475,0 3.4875,-0.19502 2.25,-0.43337 z M 443.26903,727.3444 c -0.67703,-0.27392 -2.02703,-0.29059 -3,-0.0371 -0.97297,0.25354 -0.41903,0.47766 1.23097,0.49804 1.65,0.0204 2.44606,-0.18706 1.76903,-0.46099 z M 435.25,726.33772 c -0.6875,-0.27741 -1.8125,-0.27741 -2.5,0 -0.6875,0.27741 -0.125,0.50439 1.25,0.50439 1.375,0 1.9375,-0.22698 1.25,-0.50439 z m 128,0 c -0.6875,-0.27741 -1.8125,-0.27741 -2.5,0 -0.6875,0.27741 -0.125,0.50439 1.25,0.50439 1.375,0 1.9375,-0.22698 1.25,-0.50439 z m 7.47917,-0.94189 c -0.33229,-0.33229 -1.1948,-0.36781 -1.91667,-0.0789 -0.79773,0.31922 -0.56078,0.55618 0.60417,0.60416 1.05416,0.0434 1.64479,-0.19293 1.3125,-0.52522 z m 6.52083,-1.05811 c -0.6875,-0.27741 -1.8125,-0.27741 -2.5,0 -0.6875,0.27741 -0.125,0.50439 1.25,0.50439 1.375,0 1.9375,-0.22698 1.25,-0.50439 z m -163.52083,-0.94189 c -0.33229,-0.33229 -1.1948,-0.36781 -1.91667,-0.0789 -0.79773,0.31922 -0.56078,0.55618 0.60417,0.60416 1.05416,0.0434 1.64479,-0.19293 1.3125,-0.52522 z m -6,-1 c -0.33229,-0.33229 -1.1948,-0.36781 -1.91667,-0.0789 -0.79773,0.31922 -0.56078,0.55618 0.60417,0.60416 1.05416,0.0434 1.64479,-0.19293 1.3125,-0.52522 z m -5,-1 c -0.33229,-0.33229 -1.1948,-0.36781 -1.91667,-0.0789 -0.79773,0.31922 -0.56078,0.55618 0.60417,0.60416 1.05416,0.0434 1.64479,-0.19293 1.3125,-0.52522 z m -5,-1 c -0.33229,-0.33229 -1.1948,-0.36781 -1.91667,-0.0789 -0.79773,0.31922 -0.56078,0.55618 0.60417,0.60416 1.05416,0.0434 1.64479,-0.19293 1.3125,-0.52522 z m 211,-2 c -0.33229,-0.33229 -1.1948,-0.36781 -1.91667,-0.0789 -0.79773,0.31922 -0.56078,0.55618 0.60417,0.60416 1.05416,0.0434 1.64479,-0.19293 1.3125,-0.52522 z m -123.46014,-1.05177 c -0.67703,-0.27392 -2.02703,-0.29059 -3,-0.0371 -0.97297,0.25354 -0.41903,0.47766 1.23097,0.49804 1.65,0.0204 2.44606,-0.18706 1.76903,-0.46099 z m -26.53986,-0.94823 c -0.33229,-0.33229 -1.1948,-0.36781 -1.91667,-0.0789 -0.79773,0.31922 -0.56078,0.55618 0.60417,0.60416 1.05416,0.0434 1.64479,-0.19293 1.3125,-0.52522 z M 543.5,714.4109 c 55.33607,-5.08628 105.49137,-18.26647 144.75708,-38.04036 3.75416,-1.89057 7.32663,-3.12782 7.93884,-2.74946 0.61983,0.38308 0.83537,0.23857 0.48639,-0.32609 -0.81096,-1.31216 13.02809,-9.59201 14.50577,-8.67875 0.64065,0.39594 0.84418,0.24497 0.47501,-0.35235 -0.35525,-0.57482 0.45939,-1.76934 1.81031,-2.65451 2.948,-1.9316 3.89717,-2.04821 2.92529,-0.35938 -0.41793,0.72624 -0.33791,0.90083 0.19098,0.41667 0.50068,-0.45834 0.91149,-1.35834 0.91292,-2 10e-4,-0.64167 0.75716,-1.17241 1.67942,-1.17942 0.92226,-0.007 2.04609,-0.41667 2.49741,-0.91033 0.47807,-0.52292 0.23433,-0.55746 -0.58393,-0.0827 -0.95677,0.55508 -1.17182,0.43834 -0.67459,-0.36619 0.40145,-0.64957 1.47338,-1.0566 2.38207,-0.90451 0.90868,0.15209 1.66225,-0.24253 1.67459,-0.87692 0.0123,-0.6344 3.14184,-4.0094 6.95443,-7.5 3.8126,-3.49061 8.82231,-8.91185 11.13269,-12.04721 2.31038,-3.13535 4.36598,-5.53535 4.56801,-5.33333 0.20202,0.20202 0.4368,-0.60769 0.52173,-1.79935 0.0849,-1.19167 0.48218,-4.08282 0.88276,-6.42479 0.97006,-5.67132 -1.37823,-11.7043 -6.50406,-16.70954 -2.17266,-2.12154 -3.74877,-4.18342 -3.50247,-4.58194 0.24631,-0.39852 -0.33483,-0.6629 -1.29141,-0.5875 -0.96193,0.0758 -1.61644,-0.45478 -1.46446,-1.18723 0.15112,-0.72838 -0.14577,-1.06442 -0.65976,-0.74676 -1.41179,0.87254 -4.19641,-0.4882 -3.45477,-1.6882 0.3642,-0.58929 0.17249,-0.75537 -0.43706,-0.37865 -1.68529,1.04157 -8.52263,-2.52886 -6.97846,-3.64412 0.88197,-0.63699 0.74307,-0.74235 -0.46708,-0.35427 -0.9473,0.30379 -7.18461,-1.222 -13.86071,-3.39065 -13.96712,-4.53705 -37.50136,-9.34666 -53.34062,-10.90103 -13.36379,-1.31145 -14.85086,-1.32523 -14.11265,-0.13077 1.5447,2.49938 5.44471,14.12019 4.55408,13.56975 C 646.45799,591.16502 646,591.32102 646,591.85765 c 0,0.53663 0.5625,1.20266 1.25,1.48007 0.6875,0.27741 0.35,0.53302 -0.75,0.56802 -1.1,0.035 -2.67065,-0.36037 -3.49032,-0.8786 -1.01576,-0.64219 -2.28949,-0.42249 -4,0.68996 -2.33314,1.51738 -2.41411,1.51556 -1.15099,-0.0259 1.18391,-1.44478 1.05527,-1.77246 -1,-2.54724 -1.29728,-0.48905 -3.81332,-1.20553 -5.5912,-1.59219 -2.73934,-0.59576 -3.40653,-1.33989 -4.3731,-4.8774 C 626.26707,582.37847 621.72097,568.125 616.79195,553 597.52917,493.891 591.89372,475.14594 586.05848,450.77187 577.62233,415.53369 574.21089,383.15593 577.02124,365 c 1.20782,-7.80293 3.80278,-15.2268 5.05245,-14.45445 0.49687,0.30708 0.66387,-0.0659 0.37111,-0.8288 -0.29276,-0.76293 0.42168,-2.4738 1.58764,-3.80194 1.16597,-1.32815 1.7885,-1.73981 1.38342,-0.91481 -0.40508,0.825 -0.40186,1.2 0.007,0.83333 0.40901,-0.36666 0.73822,-1.04166 0.73158,-1.5 C 586.13783,343.17657 589.11361,340 590.214,340 c 0.49722,0 0.58295,0.51953 0.19051,1.15451 -0.44563,0.72104 -0.27393,0.88282 0.45729,0.4309 0.64395,-0.39798 0.9061,-1.15194 0.58254,-1.67546 -0.99936,-1.61701 5.54691,-3.62782 17.45949,-5.36303 14.94672,-2.17716 31.56864,-6.52584 41.93478,-10.97111 9.26484,-3.973 9.57995,-4.06207 8.5659,-2.4213 -0.44563,0.72104 -0.27393,0.88282 0.45729,0.4309 0.64395,-0.39798 0.92588,-1.11993 0.6265,-1.60434 -0.29937,-0.4844 0.3387,-1.3533 1.41795,-1.9309 2.46056,-1.31685 3.39022,-1.33888 2.60083,-0.0616 -0.35708,0.57775 0.0688,0.7277 1.02483,0.36083 1.18395,-0.45432 1.30326,-0.83321 0.43196,-1.37171 -0.86326,-0.53352 -0.6748,-1.05544 0.66615,-1.84485 1.76386,-1.03838 1.7375,-1.13801 -0.46455,-1.75558 -1.80416,-0.50597 -2.03135,-0.87182 -1,-1.61031 0.98843,-0.70777 0.8682,-0.80481 -0.46359,-0.37418 -2.36266,0.76395 -81.89113,-33.27752 -81.02348,-34.6814 0.35425,-0.5732 0.13965,-0.71693 -0.48969,-0.32798 -0.61617,0.38081 -3.68945,-0.0545 -6.82953,-0.96733 -10.27194,-2.98613 -19.65293,-0.59923 -33.31824,8.47752 -6.61728,4.39532 -7.56787,4.81697 -6.43963,2.85644 0.39564,-0.6875 0.38469,-0.95 -0.0243,-0.58333 -0.40901,0.36666 -0.73822,1.04166 -0.73158,1.5 0.0172,1.19012 -2.97329,4.33333 -4.12284,4.33333 -0.5321,0 -0.34986,-0.7875 0.40499,-1.75 1.24796,-1.59128 1.21153,-1.62371 -0.40173,-0.3575 -0.97579,0.76588 -1.53199,1.63468 -1.236,1.93067 0.67529,0.67528 -4.51905,6.17683 -5.83191,6.17683 -0.53234,0 -0.11065,-1.0125 0.93709,-2.25 l 1.90499,-2.25 -2.25613,1.91054 c -1.24087,1.05079 -2.02426,2.14241 -1.74085,2.42581 0.89629,0.89629 -3.74211,5.13143 -4.89838,4.4725 -0.60755,-0.34622 -0.76616,-0.25637 -0.35246,0.19967 1.03838,1.14466 -2.25596,4.59462 -3.63583,3.80757 -0.61399,-0.35021 -0.77787,-0.26361 -0.36417,0.19243 0.87979,0.96985 -2.16038,4.66625 -3.27252,3.97891 -0.41418,-0.25598 -1.36653,0.31714 -2.11635,1.27358 -1.2337,1.57367 -1.19694,1.60851 0.38669,0.36655 0.9625,-0.75485 1.75,-0.95562 1.75,-0.44617 0,1.2717 -6.50458,7.4807 -7.15521,6.83006 -0.28805,-0.28804 -1.38346,0.4564 -2.43425,1.65431 -1.0508,1.19792 -1.34804,1.84912 -0.66054,1.44712 0.6875,-0.402 1.25,-0.30946 1.25,0.20566 0,1.45846 -2.58947,3.24976 -3.50233,2.42278 -0.45008,-0.40772 -0.52731,-0.23171 -0.17162,0.39114 0.79573,1.39344 -3.13502,6.60364 -4.39467,5.82513 -0.49966,-0.30881 -0.70329,0.0244 -0.4525,0.74047 0.25078,0.71607 -0.70376,2.65194 -2.12121,4.30194 -1.41744,1.65 -2.23063,2.325 -1.80709,1.5 0.44694,-0.87057 0.39343,-1.15567 -0.1275,-0.67942 -0.49366,0.45132 -0.90331,1.57515 -0.91033,2.49741 -0.007,0.92226 -0.53775,1.678 -1.17942,1.67942 -0.64166,10e-4 -1.54166,0.41224 -2,0.91292 -0.48416,0.52889 -0.30957,0.60891 0.41667,0.19098 1.87205,-1.07732 1.53123,0.0166 -1.37203,4.40373 -1.44212,2.17918 -2.98602,3.7372 -3.4309,3.46225 -0.44488,-0.27495 -1.1345,0.027 -1.53248,0.67091 -0.45192,0.73122 -0.29014,0.90292 0.4309,0.45729 1.90549,-1.17765 1.34117,0.30064 -2.47475,6.48291 -1.99609,3.23393 -4.09062,5.59473 -4.6545,5.24622 -0.58242,-0.35995 -0.72258,-0.1439 -0.3245,0.5002 0.9616,1.55592 -1.22906,5.39375 -2.59642,4.54868 -0.65424,-0.40434 -0.82216,-0.22595 -0.41201,0.4377 0.98508,1.59388 -3.19558,9.42286 -4.57616,8.56961 -0.66951,-0.41378 -0.8365,-0.23731 -0.4173,0.44097 0.38438,0.62194 -0.0247,2.37897 -0.90914,3.90451 -0.88441,1.52554 -1.35953,1.96284 -1.05582,0.97177 0.34193,-1.11579 0.14982,-1.55325 -0.50452,-1.14885 -0.58119,0.3592 -0.81151,1.29209 -0.51181,2.07309 0.6633,1.72853 -3.4307,10.48205 -4.57241,9.77644 -0.44728,-0.27644 -0.51692,0.26958 -0.15476,1.21337 0.48212,1.25638 0.30375,1.49674 -0.66596,0.89743 -0.91996,-0.56857 -1.08709,-0.43451 -0.54725,0.43897 1.12224,1.81582 -3.54475,11.48025 -4.74209,9.81994 -0.62534,-0.86713 -0.71784,-0.66576 -0.29236,0.63646 0.77156,2.36148 -12.33333,31.77517 -13.76328,30.89142 -0.56884,-0.35157 -0.65783,-0.0849 -0.21226,0.63603 0.9154,1.48113 -2.36426,9.24373 -3.58632,8.48845 -0.46693,-0.28858 -0.6168,0.0803 -0.33305,0.81976 0.28375,0.73945 -2.2346,7.85032 -5.59634,15.80194 C 411.64428,498.22776 388,557.26957 388,559.28525 c 0,0.72311 -0.38194,1.74225 -0.84876,2.26475 -1.19673,1.33946 -8.01098,21.57279 -10.08668,29.95 l -1.73445,7 -5.91505,2.91361 c -3.25328,1.60248 -8.52507,3.94037 -11.71509,5.1953 l -5.80002,2.28168 0.67834,-2.19529 c 0.37308,-1.20742 1.55198,-3.92641 2.61978,-6.04221 1.0678,-2.11579 1.77145,-4.0169 1.56368,-4.22468 -0.20778,-0.20777 -3.72667,0.26102 -7.81976,1.04176 -4.0931,0.78074 -12.24884,2.34287 -18.12387,3.47141 -5.87504,1.12853 -15.77504,3.6716 -22,5.65127 -6.22497,1.97966 -12.29312,3.66864 -13.48479,3.75327 -1.19166,0.0846 -1.97364,0.3469 -1.73773,0.58281 0.36605,0.36606 -11.35238,7.07107 -12.35819,7.07107 -0.19549,0 -0.0344,-0.51953 0.35808,-1.15451 0.44563,-0.72104 0.27393,-0.88282 -0.45729,-0.4309 -0.64395,0.39798 -0.99213,1.03001 -0.77372,1.40451 0.21841,0.37449 -1.29446,2.0309 -3.36193,3.6809 -5.49338,4.38413 -8.23712,8.88579 -8.76514,14.38098 -0.44152,4.59502 -0.0422,5.94393 4.59128,15.50822 0.23693,0.48905 -0.14713,0.53202 -0.85347,0.0955 -0.84836,-0.52432 -1.03864,-0.39632 -0.56063,0.37711 0.39798,0.64395 1.10648,0.9342 1.57443,0.64498 1.1877,-0.73403 5.12733,4.49594 4.34285,5.76527 -0.35305,0.57124 -0.1604,0.74001 0.42895,0.37577 1.24811,-0.77137 7.30097,4.00939 6.96604,5.50202 -0.12477,0.55605 0.89814,1.70505 2.27314,2.55334 l 2.5,1.54235 -2.5,-2.10053 c -2.9584,-2.48568 -1.97576,-2.83045 1.5266,-0.53562 1.35092,0.88517 2.22775,1.97907 1.9485,2.43091 -0.27925,0.45183 0.0192,1.14714 0.6631,1.54512 0.77343,0.47801 0.90143,0.28773 0.37711,-0.56063 -0.53237,-0.8614 -0.3363,-1.11806 0.59549,-0.77951 0.76406,0.2776 1.26555,1.04443 1.11442,1.70406 -0.15112,0.65963 0.15819,0.93174 0.68737,0.60469 0.52918,-0.32705 5.15283,1.63394 10.27478,4.35775 18.33403,9.7499 47.96438,20.59548 75.68553,27.70314 15.29042,3.92044 47.72098,9.61517 65.1271,11.43616 26.84648,2.80863 70.13774,2.96677 98.5,0.35983 z m -68.75,-80.07318 c 0.6875,-0.27741 1.8125,-0.27741 2.5,0 0.6875,0.27741 0.125,0.50439 -1.25,0.50439 -1.375,0 -1.9375,-0.22698 -1.25,-0.50439 z m 30,0 c 0.6875,-0.27741 1.8125,-0.27741 2.5,0 0.6875,0.27741 0.125,0.50439 -1.25,0.50439 -1.375,0 -1.9375,-0.22698 -1.25,-0.50439 z m 49.0625,-6.02083 c 0.72187,-0.28887 1.58438,-0.25335 1.91667,0.0789 0.33229,0.33229 -0.25834,0.56864 -1.3125,0.52522 -1.16495,-0.048 -1.4019,-0.28494 -0.60417,-0.60416 z M 484.75,583.33772 c 0.6875,-0.27741 1.8125,-0.27741 2.5,0 0.6875,0.27741 0.125,0.50439 -1.25,0.50439 -1.375,0 -1.9375,-0.22698 -1.25,-0.50439 z m 26.51903,-1.03071 c 0.97297,-0.25354 2.32297,-0.23687 3,0.0371 0.67703,0.27393 -0.11903,0.48137 -1.76903,0.46099 -1.65,-0.0204 -2.20394,-0.2445 -1.23097,-0.49804 z m -57.45653,-1.99012 c 0.72187,-0.28887 1.58438,-0.25335 1.91667,0.0789 0.33229,0.33229 -0.25834,0.56864 -1.3125,0.52522 -1.16495,-0.048 -1.4019,-0.28494 -0.60417,-0.60416 z M 446.75,715.31067 c -0.9625,-0.25152 -2.5375,-0.25152 -3.5,0 -0.9625,0.25153 -0.175,0.45733 1.75,0.45733 1.925,0 2.7125,-0.2058 1.75,-0.45733 z m 103.5,0.0271 c -0.6875,-0.27741 -1.8125,-0.27741 -2.5,0 -0.6875,0.27741 -0.125,0.50439 1.25,0.50439 1.375,0 1.9375,-0.22698 1.25,-0.50439 z m -114,-1 c -0.6875,-0.27741 -1.8125,-0.27741 -2.5,0 -0.6875,0.27741 -0.125,0.50439 1.25,0.50439 1.375,0 1.9375,-0.22698 1.25,-0.50439 z m 122,0 c -0.6875,-0.27741 -1.8125,-0.27741 -2.5,0 -0.6875,0.27741 -0.125,0.50439 1.25,0.50439 1.375,0 1.9375,-0.22698 1.25,-0.50439 z m 67.47917,0.0581 c -0.33229,-0.33229 -1.1948,-0.36781 -1.91667,-0.0789 -0.79773,0.31922 -0.56078,0.55618 0.60417,0.60416 1.05416,0.0434 1.64479,-0.19293 1.3125,-0.52522 z M 430.26903,713.3441 c -0.67703,-0.27392 -2.02703,-0.29059 -3,-0.0371 -0.97297,0.25354 -0.41903,0.47766 1.23097,0.49804 1.65,0.0204 2.44606,-0.18706 1.76903,-0.46099 z m 136.46014,0.0518 c -0.33229,-0.33229 -1.1948,-0.36781 -1.91667,-0.0789 -0.79773,0.31922 -0.56078,0.55618 0.60417,0.60416 1.05416,0.0434 1.64479,-0.19293 1.3125,-0.52522 z m -202,-1 c -0.33229,-0.33229 -1.1948,-0.36781 -1.91667,-0.0789 -0.79773,0.31922 -0.56078,0.55618 0.60417,0.60416 1.05416,0.0434 1.64479,-0.19293 1.3125,-0.52522 z M 573.25,712.33772 c -0.6875,-0.27741 -1.8125,-0.27741 -2.5,0 -0.6875,0.27741 -0.125,0.50439 1.25,0.50439 1.375,0 1.9375,-0.22698 1.25,-0.50439 z m -156,-1 c -0.6875,-0.27741 -1.8125,-0.27741 -2.5,0 -0.6875,0.27741 -0.125,0.50439 1.25,0.50439 1.375,0 1.9375,-0.22698 1.25,-0.50439 z m 163,0 c -0.6875,-0.27741 -1.8125,-0.27741 -2.5,0 -0.6875,0.27741 -0.125,0.50439 1.25,0.50439 1.375,0 1.9375,-0.22698 1.25,-0.50439 z m -169.52083,-0.94189 c -0.33229,-0.33229 -1.1948,-0.36781 -1.91667,-0.0789 -0.79773,0.31922 -0.56078,0.55618 0.60417,0.60416 1.05416,0.0434 1.64479,-0.19293 1.3125,-0.52522 z m 176,0 c -0.33229,-0.33229 -1.1948,-0.36781 -1.91667,-0.0789 -0.79773,0.31922 -0.56078,0.55618 0.60417,0.60416 1.05416,0.0434 1.64479,-0.19293 1.3125,-0.52522 z M 641,710 c 0.825,-0.53316 1.05,-0.96937 0.5,-0.96937 -0.55,0 -1.675,0.43621 -2.5,0.96937 -0.825,0.53316 -1.05,0.96937 -0.5,0.96937 0.55,0 1.675,-0.43621 2.5,-0.96937 z m -235.27083,-0.60417 c -0.33229,-0.33229 -1.1948,-0.36781 -1.91667,-0.0789 -0.79773,0.31922 -0.56078,0.55618 0.60417,0.60416 1.05416,0.0434 1.64479,-0.19293 1.3125,-0.52522 z m 186,0 c -0.33229,-0.33229 -1.1948,-0.36781 -1.91667,-0.0789 -0.79773,0.31922 -0.56078,0.55618 0.60417,0.60416 1.05416,0.0434 1.64479,-0.19293 1.3125,-0.52522 z m 10,-2 c -0.33229,-0.33229 -1.1948,-0.36781 -1.91667,-0.0789 -0.79773,0.31922 -0.56078,0.55618 0.60417,0.60416 1.05416,0.0434 1.64479,-0.19293 1.3125,-0.52522 z m -215,-2 c -0.33229,-0.33229 -1.1948,-0.36781 -1.91667,-0.0789 -0.79773,0.31922 -0.56078,0.55618 0.60417,0.60416 1.05416,0.0434 1.64479,-0.19293 1.3125,-0.52522 z M 683,680.42963 c 0,-0.275 -0.9,-0.0183 -2,0.57037 -1.1,0.5887 -2,1.29537 -2,1.57037 0,0.275 0.9,0.0183 2,-0.57037 1.1,-0.5887 2,-1.29537 2,-1.57037 z M 306.91667,677.62292 C 305.89864,676.70161 298,673.01025 298,673.45579 c 0,0.61348 7.1555,4.43921 8.41667,4.50001 0.50416,0.0243 0.72916,-0.12549 0.5,-0.33288 z M 727.5,669 c 0.99549,-1.1 1.58498,-2 1.30998,-2 -0.275,0 -1.31449,0.9 -2.30998,2 -0.99549,1.1 -1.58498,2 -1.30998,2 0.275,0 1.31449,-0.9 2.30998,-2 z m 20,-17 c 0.99549,-1.1 1.58498,-2 1.30998,-2 -0.275,0 -1.31449,0.9 -2.30998,2 -0.99549,1.1 -1.58498,2 -1.30998,2 0.275,0 1.31449,-0.9 2.30998,-2 z M 254.7234,633.75 c -0.22183,-1.7875 -0.40333,-0.325 -0.40333,3.25 0,3.575 0.1815,5.0375 0.40333,3.25 0.22182,-1.7875 0.22182,-4.7125 0,-6.5 z m 11.98386,1.01166 c -0.23919,-1.24391 -0.44398,-0.46166 -0.45508,1.73834 -0.0111,2.2 0.18461,3.21775 0.4349,2.26166 0.25029,-0.95609 0.25937,-2.75609 0.0202,-4 z m -9.3257,-10.3136 c 0.34149,-0.88992 0.17385,-1.29132 -0.39301,-0.94098 -0.5437,0.33602 -0.98855,1.0344 -0.98855,1.55194 0,1.43843 0.71677,1.12146 1.38156,-0.61096 z m 29.11136,-10.43661 c 0.35034,-0.56686 -0.0511,-0.7345 -0.94098,-0.39301 -1.73242,0.66479 -2.04939,1.38156 -0.61096,1.38156 0.51754,0 1.21592,-0.44485 1.55194,-0.98855 z M 268.12756,611.25 c 1.24387,-1.58606 1.2085,-1.62143 -0.37756,-0.37756 -0.9625,0.75485 -1.75,1.54235 -1.75,1.75 0,0.82304 0.82119,0.29331 2.12756,-1.37244 z m 67.60161,-12.85417 c -0.33229,-0.33229 -1.1948,-0.36781 -1.91667,-0.0789 -0.79773,0.31922 -0.56078,0.55618 0.60417,0.60416 1.05416,0.0434 1.64479,-0.19293 1.3125,-0.52522 z m 5.52083,-1.05811 c -0.6875,-0.27741 -1.8125,-0.27741 -2.5,0 -0.6875,0.27741 -0.125,0.50439 1.25,0.50439 1.375,0 1.9375,-0.22698 1.25,-0.50439 z m 5.47917,-0.94189 c -0.33229,-0.33229 -1.1948,-0.36781 -1.91667,-0.0789 -0.79773,0.31922 -0.56078,0.55618 0.60417,0.60416 1.05416,0.0434 1.64479,-0.19293 1.3125,-0.52522 z m -17,-9 c -0.33229,-0.33229 -1.1948,-0.36781 -1.91667,-0.0789 -0.79773,0.31922 -0.56078,0.55618 0.60417,0.60416 1.05416,0.0434 1.64479,-0.19293 1.3125,-0.52522 z m 10,-2 c -0.33229,-0.33229 -1.1948,-0.36781 -1.91667,-0.0789 -0.79773,0.31922 -0.56078,0.55618 0.60417,0.60416 1.05416,0.0434 1.64479,-0.19293 1.3125,-0.52522 z m 6,-1 c -0.33229,-0.33229 -1.1948,-0.36781 -1.91667,-0.0789 -0.79773,0.31922 -0.56078,0.55618 0.60417,0.60416 1.05416,0.0434 1.64479,-0.19293 1.3125,-0.52522 z m 356,0 c -0.33229,-0.33229 -1.1948,-0.36781 -1.91667,-0.0789 -0.79773,0.31922 -0.56078,0.55618 0.60417,0.60416 1.05416,0.0434 1.64479,-0.19293 1.3125,-0.52522 z m -343,-2 c -0.33229,-0.33229 -1.1948,-0.36781 -1.91667,-0.0789 -0.79773,0.31922 -0.56078,0.55618 0.60417,0.60416 1.05416,0.0434 1.64479,-0.19293 1.3125,-0.52522 z m 314,-4 c -0.33229,-0.33229 -1.1948,-0.36781 -1.91667,-0.0789 -0.79773,0.31922 -0.56078,0.55618 0.60417,0.60416 1.05416,0.0434 1.64479,-0.19293 1.3125,-0.52522 z m -6,-1 c -0.33229,-0.33229 -1.1948,-0.36781 -1.91667,-0.0789 -0.79773,0.31922 -0.56078,0.55618 0.60417,0.60416 1.05416,0.0434 1.64479,-0.19293 1.3125,-0.52522 z m -7.96751,-1.08291 c -0.95609,-0.25029 -2.75609,-0.25937 -4,-0.0202 -1.24391,0.23919 -0.46166,0.44398 1.73834,0.45508 2.2,0.0111 3.21775,-0.18461 2.26166,-0.4349 z m -8.49263,-0.96886 c -0.67703,-0.27392 -2.02703,-0.29059 -3,-0.0371 -0.97297,0.25354 -0.41903,0.47766 1.23097,0.49804 1.65,0.0204 2.44606,-0.18706 1.76903,-0.46099 z M 658.75,564.31067 c -0.9625,-0.25152 -2.5375,-0.25152 -3.5,0 -0.9625,0.25153 -0.175,0.45733 1.75,0.45733 1.925,0 2.7125,-0.2058 1.75,-0.45733 z M 607.68311,518.8125 c -0.31922,-0.79773 -0.55618,-0.56078 -0.60416,0.60417 -0.0434,1.05416 0.19293,1.64479 0.52522,1.3125 0.33229,-0.33229 0.36781,-1.1948 0.0789,-1.91667 z m -3,-51 c -0.31922,-0.79773 -0.55618,-0.56078 -0.60416,0.60417 -0.0434,1.05416 0.19293,1.64479 0.52522,1.3125 0.33229,-0.33229 0.36781,-1.1948 0.0789,-1.91667 z m -13,-2 c -0.31922,-0.79773 -0.55618,-0.56078 -0.60416,0.60417 -0.0434,1.05416 0.19293,1.64479 0.52522,1.3125 0.33229,-0.33229 0.36781,-1.1948 0.0789,-1.91667 z m -4,-16 c -0.31922,-0.79773 -0.55618,-0.56078 -0.60416,0.60417 -0.0434,1.05416 0.19293,1.64479 0.52522,1.3125 0.33229,-0.33229 0.36781,-1.1948 0.0789,-1.91667 z m 10,-9 c -0.31922,-0.79773 -0.55618,-0.56078 -0.60416,0.60417 -0.0434,1.05416 0.19293,1.64479 0.52522,1.3125 0.33229,-0.33229 0.36781,-1.1948 0.0789,-1.91667 z M 583.66228,430.75 c -0.27741,-0.6875 -0.50439,-0.125 -0.50439,1.25 0,1.375 0.22698,1.9375 0.50439,1.25 0.27741,-0.6875 0.27741,-1.8125 0,-2.5 z m 12.02083,1.0625 c -0.31922,-0.79773 -0.55618,-0.56078 -0.60416,0.60417 -0.0434,1.05416 0.19293,1.64479 0.52522,1.3125 0.33229,-0.33229 0.36781,-1.1948 0.0789,-1.91667 z m -1,-5 c -0.31922,-0.79773 -0.55618,-0.56078 -0.60416,0.60417 -0.0434,1.05416 0.19293,1.64479 0.52522,1.3125 0.33229,-0.33229 0.36781,-1.1948 0.0789,-1.91667 z m -1.02083,-6.0625 c -0.27741,-0.6875 -0.50439,-0.125 -0.50439,1.25 0,1.375 0.22698,1.9375 0.50439,1.25 0.27741,-0.6875 0.27741,-1.8125 0,-2.5 z m -1,-6 c -0.27741,-0.6875 -0.50439,-0.125 -0.50439,1.25 0,1.375 0.22698,1.9375 0.50439,1.25 0.27741,-0.6875 0.27741,-1.8125 0,-2.5 z m -11.97917,-0.9375 c -0.31922,-0.79773 -0.55618,-0.56078 -0.60416,0.60417 -0.0434,1.05416 0.19293,1.64479 0.52522,1.3125 0.33229,-0.33229 0.36781,-1.1948 0.0789,-1.91667 z m -1,-5 c -0.31922,-0.79773 -0.55618,-0.56078 -0.60416,0.60417 -0.0434,1.05416 0.19293,1.64479 0.52522,1.3125 0.33229,-0.33229 0.36781,-1.1948 0.0789,-1.91667 z m 12.00988,-1.54347 c -0.25354,-0.97297 -0.47766,-0.41903 -0.49804,1.23097 -0.0204,1.65 0.18706,2.44606 0.46099,1.76903 0.27392,-0.67703 0.29059,-2.02703 0.0371,-3 z M 590.68933,398.25 c -0.25153,-0.9625 -0.45733,-0.175 -0.45733,1.75 0,1.925 0.2058,2.7125 0.45733,1.75 0.25152,-0.9625 0.25152,-2.5375 0,-3.5 z m -13.00622,-22.4375 c -0.31922,-0.79773 -0.55618,-0.56078 -0.60416,0.60417 -0.0434,1.05416 0.19293,1.64479 0.52522,1.3125 0.33229,-0.33229 0.36781,-1.1948 0.0789,-1.91667 z m 13,-10 c -0.31922,-0.79773 -0.55618,-0.56078 -0.60416,0.60417 -0.0434,1.05416 0.19293,1.64479 0.52522,1.3125 0.33229,-0.33229 0.36781,-1.1948 0.0789,-1.91667 z m 40.04606,-21.41667 c -0.33229,-0.33229 -1.1948,-0.36781 -1.91667,-0.0789 -0.79773,0.31922 -0.56078,0.55618 0.60417,0.60416 1.05416,0.0434 1.64479,-0.19293 1.3125,-0.52522 z m -24,-8 c -0.33229,-0.33229 -1.1948,-0.36781 -1.91667,-0.0789 -0.79773,0.31922 -0.56078,0.55618 0.60417,0.60416 1.05416,0.0434 1.64479,-0.19293 1.3125,-0.52522 z M 655.5,307 c -0.33992,-0.55 -1.15398,-0.99311 -1.80902,-0.98469 -0.71561,0.009 -0.59227,0.40223 0.30902,0.98469 1.92112,1.24153 2.2673,1.24153 1.5,0 z m -155,-4 c 2.14824,-2.2 3.6809,-4 3.4059,-4 -0.275,0 -2.25766,1.8 -4.4059,4 -2.14824,2.2 -3.6809,4 -3.4059,4 0.275,0 2.25766,-1.8 4.4059,-4 z M 607,286 c -0.825,-0.53316 -1.95,-0.96937 -2.5,-0.96937 -0.55,0 -0.325,0.43621 0.5,0.96937 0.825,0.53316 1.95,0.96937 2.5,0.96937 0.55,0 0.325,-0.43621 -0.5,-0.96937 z m 0.5,-13 c -0.33992,-0.55 -1.15398,-0.99311 -1.80902,-0.98469 -0.71561,0.009 -0.59227,0.40223 0.30902,0.98469 1.92112,1.24153 2.2673,1.24153 1.5,0 z m -40.77083,-0.60417 c -0.33229,-0.33229 -1.1948,-0.36781 -1.91667,-0.0789 -0.79773,0.31922 -0.56078,0.55618 0.60417,0.60416 1.05416,0.0434 1.64479,-0.19293 1.3125,-0.52522 z m 4.52083,-0.0581 c -0.6875,-0.27741 -1.8125,-0.27741 -2.5,0 -0.6875,0.27741 -0.125,0.50439 1.25,0.50439 1.375,0 1.9375,-0.22698 1.25,-0.50439 z M 588,265 c -0.825,-0.53316 -1.95,-0.96937 -2.5,-0.96937 -0.55,0 -0.325,0.43621 0.5,0.96937 0.825,0.53316 1.95,0.96937 2.5,0.96937 0.55,0 0.325,-0.43621 -0.5,-0.96937 z m -16.75,-4.66228 c -0.6875,-0.27741 -1.8125,-0.27741 -2.5,0 -0.6875,0.27741 -0.125,0.50439 1.25,0.50439 1.375,0 1.9375,-0.22698 1.25,-0.50439 z M 757,725.5 c 1.29175,-1.375 2.57363,-2.5 2.84863,-2.5 0.275,0 -0.55688,1.125 -1.84863,2.5 -1.29175,1.375 -2.57363,2.5 -2.84863,2.5 -0.275,0 0.55688,-1.125 1.84863,-2.5 z m 73.07895,-151.08333 c 0.048,-1.16495 0.28494,-1.4019 0.60416,-0.60417 0.28887,0.72187 0.25335,1.58438 -0.0789,1.91667 -0.33229,0.33229 -0.56864,-0.25834 -0.52522,-1.3125 z m 3,-20 c 0.048,-1.16495 0.28494,-1.4019 0.60416,-0.60417 0.28887,0.72187 0.25335,1.58438 -0.0789,1.91667 -0.33229,0.33229 -0.56864,-0.25834 -0.52522,-1.3125 z M 164.15789,548 c 0,-1.375 0.22698,-1.9375 0.50439,-1.25 0.27741,0.6875 0.27741,1.8125 0,2.5 -0.27741,0.6875 -0.50439,0.125 -0.50439,-1.25 z m 669.92106,-1.58333 c 0.048,-1.16495 0.28494,-1.4019 0.60416,-0.60417 0.28887,0.72187 0.25335,1.58438 -0.0789,1.91667 -0.33229,0.33229 -0.56864,-0.25834 -0.52522,-1.3125 z m 20.116,-4.91667 c 0.0204,-1.65 0.2445,-2.20394 0.49804,-1.23097 0.25354,0.97297 0.23687,2.32297 -0.0371,3 -0.27393,0.67703 -0.48137,-0.11903 -0.46099,-1.76903 z M 162.32007,520 c 0,-3.575 0.1815,-5.0375 0.40333,-3.25 0.22182,1.7875 0.22182,4.7125 0,6.5 -0.22183,1.7875 -0.40333,0.325 -0.40333,-3.25 z m 125.31816,2.13908 c -0.33956,-2.12351 -1.56135,-6.91714 -2.71509,-10.6525 -2.67397,-8.65732 -9.58942,-15.98724 -17.82256,-18.89074 -4.92382,-1.73644 -5.23729,-2.0227 -3.55887,-3.25 1.0123,-0.74021 2.44747,-1.34584 3.18926,-1.34584 2.62453,0 8.99974,-3.92927 12.09501,-7.45458 4.44358,-5.06096 5.73071,-7.93676 7.74254,-17.29894 0.97465,-4.53557 2.0795,-8.24648 2.45523,-8.24648 0.37573,0 1.20978,3.18887 1.85344,7.08637 2.40225,14.54618 10.22324,23.7381 22.44385,26.37799 3.55011,0.7669 2.99055,2.78766 -0.9978,3.60337 -5.09252,1.04153 -11.56397,5.21451 -14.92079,9.62136 -1.75502,2.30399 -3.35103,4.02899 -3.5467,3.83333 -0.19566,-0.19566 -0.4489,0.61925 -0.56276,1.81091 -0.4114,4.30599 -3.80773,18.66414 -4.41518,18.66539 -0.34221,7e-4 -0.90002,-1.73614 -1.23958,-3.85964 z M 313,490 c 0,-0.55 -0.45,-1 -1,-1 -0.55,0 -1,0.45 -1,1 0,0.55 0.45,1 1,1 0.55,0 1,-0.45 1,-1 z m 523.25218,25.5 c 0.0111,-2.2 0.21589,-2.98225 0.45508,-1.73834 0.23919,1.24391 0.23011,3.04391 -0.0202,4 -0.25029,0.95609 -0.446,-0.0617 -0.4349,-2.26166 z m -655.17323,-2.08333 c 0.048,-1.16495 0.28494,-1.4019 0.60416,-0.60417 0.28887,0.72187 0.25335,1.58438 -0.0789,1.91667 -0.3323,0.33229 -0.56864,-0.25834 -0.52522,-1.3125 z M 836.15789,509 c 0,-1.375 0.22698,-1.9375 0.50439,-1.25 0.27741,0.6875 0.27741,1.8125 0,2.5 -0.27741,0.6875 -0.50439,0.125 -0.50439,-1.25 z M 182.07895,486.41667 c 0.048,-1.16495 0.28494,-1.4019 0.60416,-0.60417 0.28887,0.72187 0.25335,1.58438 -0.0789,1.91667 -0.3323,0.33229 -0.56864,-0.25834 -0.52522,-1.3125 z M 687.50967,479.368 c -2.10179,-10.25734 -4.98897,-19.55785 -7.40941,-23.868 -4.02081,-7.15999 -11.4326,-12.8648 -20.29524,-15.62111 -4.01776,-1.24954 -7.64044,-2.54139 -8.05041,-2.87078 -0.40996,-0.32938 3.04991,-1.83487 7.68859,-3.34552 14.78235,-4.81407 22.45429,-14.29624 26.37687,-32.60064 0.99454,-4.64093 2.25963,-8.58852 2.81132,-8.77241 0.55169,-0.1839 1.52059,2.9945 2.15312,7.0631 2.98338,19.18986 11.53386,30.2727 26.84296,34.79294 4.05893,1.19846 4.29478,1.42083 2.20838,2.08222 -1.34208,0.42544 -0.42136,0.51272 2.16415,0.20515 5.72009,-0.68046 4.22885,0.87602 -2.37256,2.47635 -15.80781,3.83217 -24.23127,13.72695 -28.56382,33.55305 -1.04698,4.79102 -2.1427,8.95006 -2.43494,9.2423 -0.29224,0.29224 -0.7958,-0.75925 -1.11901,-2.33665 z m 1.15261,-3.618 c -0.27741,-0.6875 -0.50439,-0.125 -0.50439,1.25 0,1.375 0.22698,1.9375 0.50439,1.25 0.27741,-0.6875 0.27741,-1.8125 0,-2.5 z M 657.25,436.33772 c -0.6875,-0.27741 -1.8125,-0.27741 -2.5,0 -0.6875,0.27741 -0.125,0.50439 1.25,0.50439 1.375,0 1.9375,-0.22698 1.25,-0.50439 z m 30.43311,-35.52522 c -0.31922,-0.79773 -0.55618,-0.56078 -0.60416,0.60417 -0.0434,1.05416 0.19293,1.64479 0.52522,1.3125 0.33229,-0.33229 0.36781,-1.1948 0.0789,-1.91667 z m 0.97917,-7.0625 c -0.27741,-0.6875 -0.50439,-0.125 -0.50439,1.25 0,1.375 0.22698,1.9375 0.50439,1.25 0.27741,-0.6875 0.27741,-1.8125 0,-2.5 z M 834.15789,475 c 0,-1.375 0.22698,-1.9375 0.50439,-1.25 0.27741,0.6875 0.27741,1.8125 0,2.5 -0.27741,0.6875 -0.50439,0.125 -0.50439,-1.25 z m -670.07894,-4.58333 c 0.048,-1.16495 0.28494,-1.4019 0.60416,-0.60417 0.28887,0.72187 0.25335,1.58438 -0.0789,1.91667 -0.3323,0.33229 -0.56864,-0.25834 -0.52522,-1.3125 z m 669,-4 c 0.048,-1.16495 0.28494,-1.4019 0.60416,-0.60417 0.28887,0.72187 0.25335,1.58438 -0.0789,1.91667 -0.33229,0.33229 -0.56864,-0.25834 -0.52522,-1.3125 z m 19,-3 c 0.048,-1.16495 0.28494,-1.4019 0.60416,-0.60417 0.28887,0.72187 0.25335,1.58438 -0.0789,1.91667 -0.33229,0.33229 -0.56864,-0.25834 -0.52522,-1.3125 z m -21,-10 c 0.048,-1.16495 0.28494,-1.4019 0.60416,-0.60417 0.28887,0.72187 0.25335,1.58438 -0.0789,1.91667 -0.33229,0.33229 -0.56864,-0.25834 -0.52522,-1.3125 z m -644,-5 c 0.048,-1.16495 0.28494,-1.4019 0.60416,-0.60417 0.28887,0.72187 0.25335,1.58438 -0.0789,1.91667 -0.3323,0.33229 -0.56864,-0.25834 -0.52522,-1.3125 z M 351.60606,416.89313 C 351.3635,416.12691 350.38865,412.125 349.43972,408 c -4.21883,-18.33935 -12.58556,-27.46165 -29.31996,-31.96775 -4.70603,-1.2672 -4.65557,-2.54139 0.14171,-3.57852 1.78119,-0.38509 5.3929,-1.78584 8.02602,-3.11279 2.63312,-1.32694 5.33312,-2.09935 6,-1.71646 0.66688,0.38289 0.88116,0.33018 0.47618,-0.11715 -0.40498,-0.44733 1.08699,-2.7914 3.3155,-5.20905 5.12983,-5.56521 9.41387,-14.58658 11.51813,-24.25501 1.75774,-8.07624 3.4027,-11.29582 3.4027,-6.65988 0,4.07201 3.81236,18.32847 6.1008,22.8142 1.08616,2.12905 1.66329,4.3751 1.28251,4.99121 -0.3809,0.61632 -0.24611,0.84444 0.29968,0.50713 1.01987,-0.63032 8.13624,6.01347 8.35917,7.80407 0.0685,0.55 0.38415,1.225 0.7015,1.5 0.31734,0.275 0.20602,-0.13897 -0.24738,-0.91994 -0.58686,-1.01083 -0.41696,-1.24829 0.58968,-0.82418 2.17279,0.91543 12.11645,4.89193 14.85478,5.94047 2.23978,0.85764 1.91044,1.12101 -4,3.19877 -3.54241,1.24531 -7.79074,2.97745 -9.44074,3.84922 -7.70341,4.07003 -14.21072,15.21339 -17.0842,29.25566 -1.7579,8.59055 -2.12494,9.55634 -2.80974,7.39313 z m 0.57727,-80.1098 c -0.71756,-0.71756 -1.18333,-0.7766 -1.18333,-0.15 0,0.56834 0.3,1.33334 0.66667,1.7 0.36666,0.36667 0.89916,0.43417 1.18333,0.15 0.28417,-0.28416 -0.0158,-1.04916 -0.66667,-1.7 z M 256,303.62244 c 0,-0.20765 0.7875,-0.99515 1.75,-1.75 1.58606,-1.24387 1.62143,-1.2085 0.37756,0.37756 C 256.82119,303.91575 256,304.44548 256,303.62244 Z m 7,-8 c 0,-0.20765 0.7875,-0.99515 1.75,-1.75 1.58606,-1.24387 1.62143,-1.2085 0.37756,0.37756 C 263.82119,295.91575 263,296.44548 263,295.62244 Z M 240.5,292 c 0.99549,-1.1 2.03498,-2 2.30998,-2 0.275,0 -0.31449,0.9 -1.30998,2 -0.99549,1.1 -2.03498,2 -2.30998,2 -0.275,0 0.31449,-0.9 1.30998,-2 z m 535.37244,-0.75 c -1.24387,-1.58606 -1.2085,-1.62143 0.37756,-0.37756 0.9625,0.75485 1.75,1.54235 1.75,1.75 0,0.82304 -0.82119,0.29331 -2.12756,-1.37244 z M 245.5,286 c 0.99549,-1.1 2.03498,-2 2.30998,-2 0.275,0 -0.31449,0.9 -1.30998,2 -0.99549,1.1 -2.03498,2 -2.30998,2 -0.275,0 0.31449,-0.9 1.30998,-2 z m 524.37244,-1.75 c -1.24387,-1.58606 -1.2085,-1.62143 0.37756,-0.37756 0.9625,0.75485 1.75,1.54235 1.75,1.75 0,0.82304 -0.82119,0.29331 -2.12756,-1.37244 z M 254,276.5 c 1.29175,-1.375 2.57363,-2.5 2.84863,-2.5 0.275,0 -0.55688,1.125 -1.84863,2.5 -1.29175,1.375 -2.57363,2.5 -2.84863,2.5 -0.275,0 0.55688,-1.125 1.84863,-2.5 z m 507.87244,-1.25 c -1.24387,-1.58606 -1.2085,-1.62143 0.37756,-0.37756 1.66575,1.30637 2.19548,2.12756 1.37244,2.12756 -0.20765,0 -0.99515,-0.7875 -1.75,-1.75 z m -4.46745,-4.5 -1.90499,-2.25 2.25,1.90499 c 1.2375,1.04774 2.25,2.06024 2.25,2.25 0,0.80025 -0.80479,0.20945 -2.59501,-1.90499 z M 290,268.5 c 1.29175,-1.375 2.57363,-2.5 2.84863,-2.5 0.275,0 -0.55688,1.125 -1.84863,2.5 -1.29175,1.375 -2.57363,2.5 -2.84863,2.5 -0.275,0 0.55688,-1.125 1.84863,-2.5 z m 436.87244,-0.25 c -1.24387,-1.58606 -1.2085,-1.62143 0.37756,-0.37756 0.9625,0.75485 1.75,1.54235 1.75,1.75 0,0.82304 -0.82119,0.29331 -2.12756,-1.37244 z M 297,262.62244 c 0,-0.20765 0.7875,-0.99515 1.75,-1.75 1.58606,-1.24387 1.62143,-1.2085 0.37756,0.37756 C 297.82119,262.91575 297,263.44548 297,262.62244 Z M 270.5,260 c 0.99549,-1.1 2.03498,-2 2.30998,-2 0.275,0 -0.31449,0.9 -1.30998,2 -0.99549,1.1 -2.03498,2 -2.30998,2 -0.275,0 0.31449,-0.9 1.30998,-2 z m 471.90499,-4.25 -1.90499,-2.25 2.25,1.90499 c 2.11444,1.79022 2.70524,2.59501 1.90499,2.59501 -0.18976,0 -1.20226,-1.0125 -2.25,-2.25 z M 283.5,248 c 0.99549,-1.1 2.03498,-2 2.30998,-2 0.275,0 -0.31449,0.9 -1.30998,2 -0.99549,1.1 -2.03498,2 -2.30998,2 -0.275,0 0.31449,-0.9 1.30998,-2 z m 5.5,-4.37756 c 0,-0.20765 0.7875,-0.99515 1.75,-1.75 1.58606,-1.24387 1.62143,-1.2085 0.37756,0.37756 C 289.82119,243.91575 289,244.44548 289,243.62244 Z m 160.8125,-55.30555 c 0.72187,-0.28887 1.58438,-0.25335 1.91667,0.0789 0.33229,0.33229 -0.25834,0.56864 -1.3125,0.52522 -1.16495,-0.048 -1.4019,-0.28494 -0.60417,-0.60416 z m 31,-4 c 0.72187,-0.28887 1.58438,-0.25335 1.91667,0.0789 0.33229,0.33229 -0.25834,0.56864 -1.3125,0.52522 -1.16495,-0.048 -1.4019,-0.28494 -0.60417,-0.60416 z m -22,-17 c 0.72187,-0.28887 1.58438,-0.25335 1.91667,0.0789 0.33229,0.33229 -0.25834,0.56864 -1.3125,0.52522 -1.16495,-0.048 -1.4019,-0.28494 -0.60417,-0.60416 z m 30.45653,-3.00988 c 0.97297,-0.25354 2.32297,-0.23687 3,0.0371 0.67703,0.27393 -0.11903,0.48137 -1.76903,0.46099 -1.65,-0.0204 -2.20394,-0.2445 -1.23097,-0.49804 z"
         id="path2" /></g></g></svg>
