<svg class="wheel-spin absolute inset-0" :style="`transform: rotate(${rotation}deg)`" viewBox="0 0 2000 2000" fill="none" xmlns="http://www.w3.org/2000/svg">
          <path d="M1922 1005C1922 1514.21 1509.21 1927 1000 1927C490.793 1927 78 1514.21 78 1005C78 495.793 490.793 83 1000 83C1509.21 83 1922 495.793 1922 1005ZM471.592 1005C471.592 1296.83 708.168 1533.41 1000 1533.41C1291.83 1533.41 1528.41 1296.83 1528.41 1005C1528.41 713.168 1291.83 476.592 1000 476.592C708.168 476.592 471.592 713.168 471.592 1005Z" mask="url(#path-1-inside-1_9_42)" style="fill: rgba(39, 43, 53, 0.91); stroke: rgba(61, 68, 82, 0.57); stroke-width: 13px;"></path>
          <g transform="translate(1000, 1000)">
              <!-- 10 Segments with different colors -->
              <path class="segment-1" d="M862.865,5.263A10,10,0,0,1,872.863,15.44A873,873,0,0,1,715.237,500.565A10,10,0,0,1,701.166,502.922L486.728,347.123A10,10,0,0,1,484.368,333.364A588,588,0,0,0,587.808,15.008A10,10,0,0,1,597.805,5.263Z" style="stroke: rgba(68, 76, 89, 0.76); stroke-width: 6;"></path>
              <path class="segment-2" d="M694.979,511.437A10,10,0,0,1,697.086,525.547A873,873,0,0,1,284.414,825.371A10,10,0,0,1,271.645,819.007L189.737,566.92A10,10,0,0,1,195.916,554.401A588,588,0,0,0,466.726,357.646A10,10,0,0,1,480.541,355.639Z" style="stroke: rgba(68, 76, 89, 0.76); stroke-width: 6;"></path>
              <path class="segment-3" d="M261.635,822.26A10,10,0,0,1,255.046,834.914A873,873,0,0,1,-255.046,834.914A10,10,0,0,1,-261.635,822.26L-179.727,570.173A10,10,0,0,1,-167.37,563.677A588,588,0,0,0,167.37,563.677A10,10,0,0,1,179.727,570.173Z" style="stroke: rgba(68, 76, 89, 0.76); stroke-width: 6;"></path>
              <path class="segment-4" d="M-271.645,819.007A10,10,0,0,1,-284.414,825.371A873,873,0,0,1,-697.086,525.547A10,10,0,0,1,-694.979,511.437L-480.541,355.639A10,10,0,0,1,-466.726,357.646A588,588,0,0,0,-195.916,554.401A10,10,0,0,1,-189.737,566.92Z" style="stroke: rgba(68, 76, 89, 0.76); stroke-width: 6;"></path>
              <path class="segment-5" d="M-701.166,502.922A10,10,0,0,1,-715.237,500.565A873,873,0,0,1,-872.863,15.44A10,10,0,0,1,-862.865,5.263L-597.805,5.263A10,10,0,0,1,-587.808,15.008A588,588,0,0,0,-484.368,333.364A10,10,0,0,1,-486.728,347.123Z" style="stroke: rgba(68, 76, 89, 0.76); stroke-width: 6;"></path>
              <path class="segment-6" d="M-862.865,-5.263A10,10,0,0,1,-872.863,-15.44A873,873,0,0,1,-715.237,-500.565A10,10,0,0,1,-701.166,-502.922L-486.728,-347.123A10,10,0,0,1,-484.368,-333.364A588,588,0,0,0,-587.808,-15.008A10,10,0,0,1,-597.805,-5.263Z" style="stroke: rgba(68, 76, 89, 0.76); stroke-width: 6;"></path>
              <path class="segment-7" d="M-694.979,-511.437A10,10,0,0,1,-697.086,-525.547A873,873,0,0,1,-284.414,-825.371A10,10,0,0,1,-271.645,-819.007L-189.737,-566.92A10,10,0,0,1,-195.916,-554.401A588,588,0,0,0,-466.726,-357.646A10,10,0,0,1,-480.541,-355.639Z" style="stroke: rgba(68, 76, 89, 0.76); stroke-width: 6;"></path>
              <path class="segment-8" d="M-261.635,-822.26A10,10,0,0,1,-255.046,-834.914A873,873,0,0,1,255.046,-834.914A10,10,0,0,1,261.635,-822.26L179.727,-570.173A10,10,0,0,1,167.37,-563.677A588,588,0,0,0,-167.37,-563.677A10,10,0,0,1,-179.727,-570.173Z" style="stroke: rgba(68, 76, 89, 0.76); stroke-width: 6;"></path>
              <path class="segment-9" d="M271.645,-819.007A10,10,0,0,1,284.414,-825.371A873,873,0,0,1,697.086,-525.547A10,10,0,0,1,694.979,-511.437L480.541,-355.639A10,10,0,0,1,466.726,-357.646A588,588,0,0,0,195.916,-554.401A10,10,0,0,1,189.737,-566.92Z" style="stroke: rgba(68, 76, 89, 0.76); stroke-width: 6;"></path>
              <path class="segment-10" d="M701.166,-502.922A10,10,0,0,1,715.237,-500.565A873,873,0,0,1,872.863,-15.44A10,10,0,0,1,862.865,-5.263L597.805,-5.263A10,10,0,0,1,587.808,-15.008A588,588,0,0,0,484.368,-333.364A10,10,0,0,1,486.728,-347.123Z" style="stroke: rgba(68, 76, 89, 0.76); stroke-width: 6;"></path>
              
              <!-- Text labels for 10 segments -->
              <path d="M690,0A690,690,0,0,1,558.2217261187137,405.5718240818065" stroke="none" stroke-width="5" id="title_path_0"></path>
              <text dy="20" class="circ-title">
                  <textPath xlink:href="#title_path_0" text-anchor="middle" startOffset="50%" style="text-anchor: middle;">Absolutely Yes</textPath>
              </text>
              
              <path d="M558.2217261187137,405.5718240818065A690,690,0,0,1,213.22172611871375,656.228996243656" stroke="none" stroke-width="5" id="title_path_1"></path>
              <text dy="20" class="circ-title">
                  <textPath xlink:href="#title_path_1" text-anchor="middle" startOffset="50%" style="text-anchor: middle;">Definitely Not</textPath>
              </text>
              
              <path d="M213.22172611871375,656.228996243656A690,690,0,0,1,-213.22172611871366,656.228996243656" stroke="none" stroke-width="5" id="title_path_2"></path>
              <text dy="20" class="circ-title">
                  <textPath xlink:href="#title_path_2" text-anchor="middle" startOffset="50%" style="text-anchor: middle;">Probably Yes</textPath>
              </text>
              
              <path d="M-213.22172611871366,656.228996243656A690,690,0,0,1,-558.2217261187137,405.57182408180654" stroke="none" stroke-width="5" id="title_path_3"></path>
              <text dy="20" class="circ-title">
                  <textPath xlink:href="#title_path_3" text-anchor="middle" startOffset="50%" style="text-anchor: middle;">Most Likely No</textPath>
              </text>
              
              <path d="M-558.2217261187137,405.57182408180654A690,690,0,0,1,-690,8.450062914116737e-14" stroke="none" stroke-width="5" id="title_path_4"></path>
              <text dy="20" class="circ-title">
                  <textPath xlink:href="#title_path_4" text-anchor="middle" startOffset="50%" style="text-anchor: middle;">Without a Doubt</textPath>
              </text>
              
              <path d="M-690,8.450062914116737e-14A690,690,0,0,1,-558.2217261187137,-405.57182408180637" stroke="none" stroke-width="5" id="title_path_5"></path>
              <text dy="20" class="circ-title">
                  <textPath xlink:href="#title_path_5" text-anchor="middle" startOffset="50%" style="text-anchor: middle;">Not a Chance</textPath>
              </text>
              
              <path d="M-558.2217261187137,-405.57182408180637A690,690,0,0,1,-213.22172611871383,-656.228996243656" stroke="none" stroke-width="5" id="title_path_6"></path>
              <text dy="20" class="circ-title">
                  <textPath xlink:href="#title_path_6" text-anchor="middle" startOffset="50%" style="text-anchor: middle;">Yes, Definitely</textPath>
              </text>
              
              <path d="M-213.22172611871383,-656.228996243656A690,690,0,0,1,213.22172611871358,-656.228996243656" stroke="none" stroke-width="5" id="title_path_7"></path>
              <text dy="20" class="circ-title">
                  <textPath xlink:href="#title_path_7" text-anchor="middle" startOffset="50%" style="text-anchor: middle;">No Way</textPath>
              </text>
              
              <path d="M213.22172611871358,-656.228996243656A690,690,0,0,1,558.2217261187137,-405.5718240818066" stroke="none" stroke-width="5" id="title_path_8"></path>
              <text dy="20" class="circ-title">
                  <textPath xlink:href="#title_path_8" text-anchor="middle" startOffset="50%" style="text-anchor: middle;">It's Possible</textPath>
              </text>
              
              <path d="M558.2217261187137,-405.5718240818066A690,690,0,0,1,690,-1.6900125828233473e-13" stroke="none" stroke-width="5" id="title_path_9"></path>
              <text dy="20" class="circ-title">
                  <textPath xlink:href="#title_path_9" text-anchor="middle" startOffset="50%" style="text-anchor: middle;">Better Not</textPath>
              </text>
<path d="M650,0A650,650,0,0,1,525.8610463437159,382.0604139901075" stroke="none" stroke-width="5" id="droprate_path_0"></path><text dy="16" class="circl-desc">
<textPath xlink:href="#droprate_path_0" text-anchor="middle" startOffset="50%" style="text-anchor: middle;">24% drop rate</textPath>
</text>
<path d="M525.8610463437159,382.0604139901075A650,650,0,0,1,200.86104634371586,618.1867355918498" stroke="none" stroke-width="5" id="droprate_path_1"></path><text dy="16" class="circl-desc">
<textPath xlink:href="#droprate_path_1" text-anchor="middle" startOffset="50%" style="text-anchor: middle;">15% drop rate</textPath>
</text>
<path d="M200.86104634371586,618.1867355918498A650,650,0,0,1,-200.86104634371577,618.1867355918498" stroke="none" stroke-width="5" id="droprate_path_2"></path><text dy="16" class="circl-desc">
<textPath xlink:href="#droprate_path_2" text-anchor="middle" startOffset="50%" style="text-anchor: middle;">5% drop rate</textPath>
</text>
<path d="M-200.86104634371577,618.1867355918498A650,650,0,0,1,-525.8610463437158,382.06041399010763" stroke="none" stroke-width="5" id="droprate_path_3"></path><text dy="16" class="circl-desc">
<textPath xlink:href="#droprate_path_3" text-anchor="middle" startOffset="50%" style="text-anchor: middle;">50% drop rate</textPath>
</text>
<path d="M-525.8610463437158,382.06041399010763A650,650,0,0,1,-650,7.960204194457796e-14" stroke="none" stroke-width="5" id="droprate_path_4"></path><text dy="16" class="circl-desc">
<textPath xlink:href="#droprate_path_4" text-anchor="middle" startOffset="50%" style="text-anchor: middle;">1% drop rate</textPath>
</text>
<path d="M-650,7.960204194457796e-14A650,650,0,0,1,-525.8610463437159,-382.06041399010746" stroke="none" stroke-width="5" id="droprate_path_5"></path><text dy="16" class="circl-desc">
<textPath xlink:href="#droprate_path_5" text-anchor="middle" startOffset="50%" style="text-anchor: middle;">80% drop rate</textPath>
</text>
<path d="M-525.8610463437159,-382.06041399010746A650,650,0,0,1,-200.8610463437159,-618.1867355918498" stroke="none" stroke-width="5" id="droprate_path_6"></path><text dy="16" class="circl-desc">
<textPath xlink:href="#droprate_path_6" text-anchor="middle" startOffset="50%" style="text-anchor: middle;">24% drop rate</textPath>
</text>
<path d="M-200.8610463437159,-618.1867355918498A650,650,0,0,1,200.86104634371569,-618.1867355918498" stroke="none" stroke-width="5" id="droprate_path_7"></path><text dy="16" class="circl-desc">
<textPath xlink:href="#droprate_path_7" text-anchor="middle" startOffset="50%" style="text-anchor: middle;">15% drop rate</textPath>
</text>
<path d="M200.86104634371569,-618.1867355918498A650,650,0,0,1,525.8610463437158,-382.0604139901077" stroke="none" stroke-width="5" id="droprate_path_8"></path><text dy="16" class="circl-desc">
<textPath xlink:href="#droprate_path_8" text-anchor="middle" startOffset="50%" style="text-anchor: middle;">5% drop rate</textPath>
</text>
<path d="M525.8610463437158,-382.0604139901077A650,650,0,0,1,650,-1.5920408388915592e-13" stroke="none" stroke-width="5" id="droprate_path_9"></path><text dy="16" class="circl-desc">
<textPath xlink:href="#droprate_path_9" text-anchor="middle" startOffset="50%" style="text-anchor: middle;">50% drop rate</textPath>
</text>
<g transform="translate(651.8240827102197,151.03325561245896 )">
<g transform="rotate(108, 90, 90)">
<image href="https://assets.codepen.io/3685267/wheel-of-fortune-lmvdrrhl.png" height="180" width="180" class="scale-on-hover"></image>
</g>
</g>
<g transform="translate(368.47249678812904,541.033255612459 )">
<g transform="rotate(144, 90, 90)">
<image href="https://assets.codepen.io/3685267/wheel-of-fortune-lboxprxz.png" height="180" width="180" class="scale-on-hover"></image>
</g>
</g>
<g transform="translate(-89.99999999999996,690 )">
<g transform="rotate(180, 90, 90)">
<image href="https://assets.codepen.io/3685267/wheel-of-fortune-gydimcwp.png" height="180" width="180" class="scale-on-hover"></image>
</g>
</g>
<g transform="translate(-548.472496788129,541.033255612459 )">
<g transform="rotate(216, 90, 90)">
<image href="https://assets.codepen.io/3685267/wheel-of-fortune-csqvlgov.png" height="180" width="180" class="scale-on-hover"></image>
</g>
</g>
<g transform="translate(-831.8240827102197,151.03325561245904 )">
<g transform="rotate(252, 90, 90)">
<image href="https://assets.codepen.io/3685267/wheel-of-fortune-nxffhdul.png" height="180" width="180" class="scale-on-hover"></image>
</g>
</g>
<g transform="translate(-831.8240827102198,-331.0332556124589 )">
<g transform="rotate(288, 90, 90)">
<image href="https://assets.codepen.io/3685267/wheel-of-fortune-xiquzhpo.png" height="180" width="180" class="scale-on-hover"></image>
</g>
</g>
<g transform="translate(-548.4724967881291,-721.0332556124589 )">
<g transform="rotate(324, 90, 90)">
<image href="https://assets.codepen.io/3685267/wheel-of-fortune-lmvdrrhl.png" height="180" width="180" class="scale-on-hover"></image>
</g>
</g>
<g transform="translate(-90.00000000000014,-870 )">
<g transform="rotate(360, 90, 90)">
<image href="https://assets.codepen.io/3685267/wheel-of-fortune-lboxprxz.png" height="180" width="180" class="scale-on-hover"></image>
</g>
</g>
<g transform="translate(368.47249678812886,-721.0332556124591 )">
<g transform="rotate(396, 90, 90)">
<image href="https://assets.codepen.io/3685267/wheel-of-fortune-gydimcwp.png" height="180" width="180" class="scale-on-hover"></image>
</g>
</g>
<g transform="translate(651.8240827102197,-331.03325561245913 )">
<g transform="rotate(432, 90, 90)">
<image href="https://assets.codepen.io/3685267/wheel-of-fortune-csqvlgov.png" height="180" width="180" class="scale-on-hover"></image>
</g>
</g>
          </g>
      </svg>